<?xml version="1.0" encoding="UTF-8" standalone="no"?>
<svg
   xmlns:dc="http://purl.org/dc/elements/1.1/"
   xmlns:cc="http://creativecommons.org/ns#"
   xmlns:rdf="http://www.w3.org/1999/02/22-rdf-syntax-ns#"
   xmlns:svg="http://www.w3.org/2000/svg"
   xmlns="http://www.w3.org/2000/svg"
   xmlns:xlink="http://www.w3.org/1999/xlink"
   xmlns:sodipodi="http://sodipodi.sourceforge.net/DTD/sodipodi-0.dtd"
   xmlns:inkscape="http://www.inkscape.org/namespaces/inkscape"
   inkscape:version="1.0 (4035a4fb49, 2020-05-01)"
   sodipodi:docname="commentcounter.svg"
   id="svg4"
   version="1.1"
   fill="#5f6368"
   width="24px"
   viewBox="0 -960 960 960"
   height="24px">
  <metadata
     id="metadata10">
    <rdf:RDF>
      <cc:Work
         rdf:about="">
        <dc:format>image/svg+xml</dc:format>
        <dc:type
           rdf:resource="http://purl.org/dc/dcmitype/StillImage" />
      </cc:Work>
    </rdf:RDF>
  </metadata>
  <defs
     id="defs8">
    <linearGradient
       id="linearGradient839"
       inkscape:collect="always">
      <stop
         id="stop835"
         offset="0"
         style="stop-color:#004cd4;stop-opacity:1" />
      <stop
         id="stop837"
         offset="1"
         style="stop-color:#00f0b7;stop-opacity:1" />
    </linearGradient>
    <linearGradient
       gradientUnits="userSpaceOnUse"
       y2="-501.06583"
       x2="880.25079"
       y1="-508.58936"
       x1="79.749214"
       id="linearGradient841"
       xlink:href="#linearGradient839"
       inkscape:collect="always" />
  </defs>
  <sodipodi:namedview
     inkscape:current-layer="svg4"
     inkscape:window-maximized="1"
     inkscape:window-y="-8"
     inkscape:window-x="-8"
     inkscape:cy="12"
     inkscape:cx="12"
     inkscape:zoom="26.583333"
     showgrid="false"
     id="namedview6"
     inkscape:window-height="829"
     inkscape:window-width="1600"
     inkscape:pageshadow="2"
     inkscape:pageopacity="0"
     guidetolerance="10"
     gridtolerance="10"
     objecttolerance="10"
     borderopacity="1"
     bordercolor="#666666"
     pagecolor="#ffffff" />
  <path
     style="fill-opacity:1;fill:url(#linearGradient841)"
     id="path2"
     d="M240-400h480v-80H240v80Zm0-120h480v-80H240v80Zm0-120h480v-80H240v80ZM880-80 720-240H160q-33 0-56.5-23.5T80-320v-480q0-33 23.5-56.5T160-880h640q33 0 56.5 23.5T880-800v720ZM160-320h594l46 45v-525H160v480Zm0 0v-480 480Z" />
</svg>
