<svg id="Layer_1" data-name="Layer 1" xmlns="http://www.w3.org/2000/svg" viewBox="0 0 48 48"><defs><style>.cls-1{fill:#ffde76;}.cls-2{fill:#ffba55;}.cls-3{fill:#d3d1db;}.cls-4{fill:#ffd364;}.cls-5{fill:#edebf2;}.cls-6{fill:#e8968e;}.cls-7{fill:#2c435e;}.cls-8{fill:#3b506d;}</style></defs><title>envelope, email, message, mail, easter, rabbit, bunny</title><rect class="cls-1" x="0.5" y="20.08" width="47" height="27.42"/><polygon class="cls-2" points="47.5 20.08 40.65 25.79 35.27 30.28 31.05 33.79 24 39.67 16.95 33.79 12.73 30.28 7.35 25.79 0.5 20.08 7.35 14.38 24 0.5 40.65 14.38 47.5 20.08"/><path class="cls-3" d="M35.27,30.28,24,39.67,12.73,30.28A12.9,12.9,0,0,1,24,24,12.9,12.9,0,0,1,35.27,30.28Z"/><polygon class="cls-4" points="47.5 47.5 0.5 47.5 7.35 41.79 16.95 33.79 24 39.67 31.05 33.79 40.65 41.79 47.5 47.5"/><path class="cls-5" d="M18.12.5h0A3.92,3.92,0,0,1,22,4.42V19.1a0,0,0,0,1,0,0H14.21a0,0,0,0,1,0,0V4.42A3.92,3.92,0,0,1,18.12.5Z"/><path class="cls-6" d="M18.12,2.46h0a2,2,0,0,1,2,2V19.1a0,0,0,0,1,0,0H16.17a0,0,0,0,1,0,0V4.42a2,2,0,0,1,2-2Z"/><path class="cls-5" d="M29.87.5h0a3.92,3.92,0,0,1,3.92,3.92V19.1a0,0,0,0,1,0,0H26a0,0,0,0,1,0,0V4.42A3.92,3.92,0,0,1,29.87.5Z"/><path class="cls-6" d="M29.87,2.46h0a2,2,0,0,1,2,2V19.1a0,0,0,0,1,0,0H27.92a0,0,0,0,1,0,0V4.42A2,2,0,0,1,29.87,2.46Z"/><path class="cls-5" d="M35.75,22c0,4.87-5.26,6.86-11.75,6.86s-11.75-2-11.75-6.86S17.51,11.27,24,11.27,35.75,17.17,35.75,22Z"/><circle class="cls-7" cx="19.1" cy="21.06" r="0.98"/><circle class="cls-7" cx="28.9" cy="21.06" r="0.98"/><path class="cls-8" d="M25.79,23.76a1.79,1.79,0,1,1-3.58,0C22.21,22.77,25.79,22.77,25.79,23.76Z"/></svg>