<?xml version="1.0" encoding="UTF-8" standalone="no"?>
<!-- Created with Inkscape (http://www.inkscape.org/) -->

<svg
   width="48pt"
   height="48pt"
   viewBox="0 0 16.933334 16.933333"
   version="1.1"
   id="svg979"
   inkscape:version="1.1 (c68e22c387, 2021-05-23)"
   sodipodi:docname="4 - Earth.svg"
   inkscape:export-filename="E:\TR Design Studio Creative\Project Design\TR Creative Design\Icon Design\Project Hiring\Icon Icons\006 - Ecology\Send\4 - Filled Line\4 - Earth.png"
   inkscape:export-xdpi="768"
   inkscape:export-ydpi="768"
   xmlns:inkscape="http://www.inkscape.org/namespaces/inkscape"
   xmlns:sodipodi="http://sodipodi.sourceforge.net/DTD/sodipodi-0.dtd"
   xmlns="http://www.w3.org/2000/svg"
   xmlns:svg="http://www.w3.org/2000/svg"
   xmlns:rdf="http://www.w3.org/1999/02/22-rdf-syntax-ns#"
   xmlns:cc="http://creativecommons.org/ns#"
   xmlns:dc="http://purl.org/dc/elements/1.1/">
  <defs
     id="defs973" />
  <sodipodi:namedview
     id="base"
     pagecolor="#ffffff"
     bordercolor="#666666"
     borderopacity="1.0"
     inkscape:pageopacity="0.0"
     inkscape:pageshadow="2"
     inkscape:zoom="5.4358834"
     inkscape:cx="32.377442"
     inkscape:cy="36.608585"
     inkscape:document-units="pt"
     inkscape:current-layer="layer1"
     showgrid="false"
     units="pt"
     inkscape:window-width="1366"
     inkscape:window-height="716"
     inkscape:window-x="-8"
     inkscape:window-y="-8"
     inkscape:window-maximized="1"
     inkscape:pagecheckerboard="0"
     inkscape:snap-bbox="true"
     inkscape:snap-nodes="false"
     inkscape:bbox-nodes="true"
     showguides="false"
     inkscape:snap-global="true">
    <inkscape:grid
       type="xygrid"
       id="grid1526" />
    <sodipodi:guide
       position="0.97013909,15.963209"
       orientation="56.666615,0"
       id="guide1528"
       inkscape:locked="false" />
    <sodipodi:guide
       position="0.97013909,0.97016731"
       orientation="0,56.666667"
       id="guide1530"
       inkscape:locked="false" />
    <sodipodi:guide
       position="15.963195,0.97016731"
       orientation="-56.666615,0"
       id="guide1532"
       inkscape:locked="false" />
    <sodipodi:guide
       position="15.963195,15.963209"
       orientation="0,-56.666667"
       id="guide1534"
       inkscape:locked="false" />
  </sodipodi:namedview>
  <metadata
     id="metadata976">
    <rdf:RDF>
      <cc:Work
         rdf:about="">
        <dc:format>image/svg+xml</dc:format>
        <dc:type
           rdf:resource="http://purl.org/dc/dcmitype/StillImage" />
      </cc:Work>
    </rdf:RDF>
  </metadata>
  <g
     inkscape:label="Layer 1"
     inkscape:groupmode="layer"
     id="layer1"
     transform="translate(0,-280.06668)">
    <g
       id="g2416"
       transform="matrix(0.96852964,0,0,0.96852964,0.45252691,8.9832709)"
       style="stroke-width:1.03249">
      <g
         id="g302060"
         style="display:inline;stroke-width:0.811731"
         transform="matrix(1.2719653,0,0,1.2719653,-83.802566,-137.06402)">
        <path
           style="color:#000000;fill:#87d1ee;stroke-width:0.811731;stroke-linecap:round;stroke-linejoin:round;-inkscape-stroke:none;paint-order:markers fill stroke"
           d="m 72.390625,328.5918 c -3.357747,0 -6.085937,2.72623 -6.085938,6.08398 0,3.35775 2.728191,6.08594 6.085938,6.08594 3.357747,0 6.083984,-2.72819 6.083984,-6.08594 0,-3.35775 -2.726237,-6.08398 -6.083984,-6.08398 z"
           id="path287660" />
        <path
           id="path289905"
           style="color:#000000;fill:#2bb3cd;fill-opacity:1;stroke-width:0.811731;stroke-linecap:round;stroke-linejoin:round;-inkscape-stroke:none;paint-order:markers fill stroke"
           d="m 72.390224,328.5918 c -1.846683,0 -3.502638,0.82468 -4.619355,2.12545 0.763731,-0.34545 1.610789,-0.53795 2.502689,-0.53795 3.357747,0 6.084384,2.72612 6.084384,6.08386 0,1.51228 -0.553492,2.8969 -1.468128,3.96204 2.112847,-0.95484 3.584795,-3.0823 3.584795,-5.54954 0,-3.35774 -2.726637,-6.08386 -6.084385,-6.08386 z" />
        <path
           id="path287668"
           style="color:#000000;fill:#50b86b;stroke-width:3.06796;stroke-linecap:round;stroke-linejoin:round;-inkscape-stroke:none;paint-order:markers fill stroke"
           d="m 273.60156,167.40234 c -7.48118,0 -14.13342,3.58154 -18.33594,9.1211 l 0.9961,0.57812 c 0.14933,0.11452 5.1928,3.96795 10.52734,3.86133 0.6036,-7.9e-4 1.32276,-0.10259 2.05274,-0.21484 1.17886,1.16092 2.1328,1.80532 3.9414,3.44726 1.25822,1.14225 2.47876,1.95248 3.875,2.06836 1.39624,0.11603 2.75067,-0.57303 3.99414,-1.86914 3.54959,-3.69966 3.88286,-8.29795 4.6875,-13.01367 a 1.0001006,1.0001006 0 0 0 0.008,-0.0508 l 0.082,-0.65235 c -3.45674,-2.07934 -7.50399,-3.27539 -11.82813,-3.27539 z"
           transform="matrix(0.26458333,0,0,0.26458333,0,284.3)" />
        <path
           id="path287676"
           style="color:#000000;fill:#50b86b;stroke-width:3.06796;stroke-linecap:round;stroke-linejoin:round;-inkscape-stroke:none;paint-order:markers fill stroke"
           d="m 268.17188,186.20117 c -0.49243,-0.003 -0.90729,0.0176 -1.20508,0.0176 h -15.98438 c -0.24935,1.35507 -0.38281,2.75109 -0.38281,4.17773 0,3.03736 0.59345,5.93774 1.66601,8.59375 l 0.59376,0.0723 c 1.13631,0.20787 2.28601,0.34201 3.34374,0.42188 1.74981,0.1319 3.26752,1.70882 4.4375,3.46093 0.92026,1.37817 2.22373,2.63112 3.71876,3.47657 1.48592,0.84026 3.20851,1.28044 4.88671,0.84179 1.68301,-0.37304 2.8906,-1.30394 3.53711,-2.41992 0.6431,-1.11012 0.77344,-2.34814 0.53125,-3.41797 v -0.002 c -0.28312,-1.42128 0.11566,-2.05441 0.73828,-2.94336 0.62292,-0.88932 1.60049,-1.98399 1.625,-3.67578 a 1.0001006,1.0001006 0 0 0 0,-0.002 1.0001006,1.0001006 0 0 0 0,-0.002 1.0001006,1.0001006 0 0 0 0,-0.002 1.0001006,1.0001006 0 0 0 0,-0.002 1.0001006,1.0001006 0 0 0 0,-0.002 1.0001006,1.0001006 0 0 0 0,-0.002 1.0001006,1.0001006 0 0 0 0,-0.002 1.0001006,1.0001006 0 0 0 0,-0.002 c 0,-4.32601 -1.61529,-6.707 -3.60351,-7.74414 -1.36691,-0.71301 -2.81902,-0.83625 -3.90234,-0.84375 z"
           transform="matrix(0.26458333,0,0,0.26458333,0,284.3)" />
        <path
           id="path287684"
           style="color:#000000;fill:#50b86b;stroke-width:3.06796;stroke-linecap:round;stroke-linejoin:round;-inkscape-stroke:none;paint-order:markers fill stroke"
           d="m 291.08984,187.96289 c -1.18824,0.0144 -2.26038,0.3272 -3.16015,0.86133 -2.05663,1.22071 -3.20313,3.42426 -3.20313,5.52148 0,0.93128 -0.16468,1.43525 -0.36133,1.7793 -0.19664,0.34394 -0.46094,0.5736 -0.84179,0.87891 -0.38086,0.30538 -0.88392,0.67433 -1.29102,1.29882 -0.40709,0.62446 -0.6582,1.46935 -0.6582,2.53907 0,2.61025 0.30322,4.32858 0.90039,5.66211 0.59716,1.33353 1.46517,2.19563 2.35547,3.08593 l 0.5332,0.57032 c 6.72495,-4.01678 11.23438,-11.3695 11.23438,-19.76368 0,-0.16306 -0.002,-0.32601 -0.006,-0.48828 l -0.3711,-0.29492 a 1.0001006,1.0001006 0 0 0 -0.0879,-0.0586 c -1.59376,-1.00853 -3.13074,-1.49742 -4.52539,-1.58008 -0.17433,-0.0104 -0.34783,-0.0138 -0.51758,-0.0117 z"
           transform="matrix(0.26458333,0,0,0.26458333,0,284.3)" />
        <path
           id="path291789"
           style="color:#000000;fill:#46a05d;fill-opacity:1;stroke-width:3.06796;stroke-linecap:round;stroke-linejoin:round;-inkscape-stroke:none;paint-order:markers fill stroke"
           d="m 273.60156,167.40234 c -0.21811,0 -0.43567,0.004 -0.65234,0.01 -0.11942,0.003 -0.23846,0.009 -0.35742,0.0137 -0.1199,0.005 -0.23996,0.009 -0.35938,0.0156 -0.0353,0.002 -0.0702,0.006 -0.10547,0.008 -0.20268,0.0129 -0.40423,0.0288 -0.60547,0.0469 -0.20761,0.0187 -0.41509,0.0403 -0.62109,0.0645 -0.075,0.009 -0.1498,0.0178 -0.22461,0.0273 -0.14181,0.0181 -0.28283,0.038 -0.42383,0.0586 -0.0875,0.0128 -0.1745,0.0272 -0.26172,0.041 -0.12661,0.02 -0.25298,0.0404 -0.3789,0.0625 -0.0836,0.0146 -0.16673,0.0294 -0.25,0.0449 -0.1469,0.0274 -0.29355,0.0577 -0.43945,0.0879 -0.0637,0.0132 -0.12795,0.0254 -0.19141,0.0391 -0.14,0.0303 -0.27893,0.0629 -0.41797,0.0957 -0.0848,0.02 -0.16949,0.0396 -0.25391,0.0605 -0.13375,0.0332 -0.26757,0.068 -0.40039,0.10352 -0.0678,0.0181 -0.13561,0.036 -0.20312,0.0547 -0.16714,0.0463 -0.33246,0.0945 -0.49805,0.14453 -0.0357,0.0108 -0.0718,0.0203 -0.10742,0.0312 -0.13532,0.0416 -0.27005,0.0849 -0.4043,0.12891 -0.0958,0.0314 -0.19185,0.0631 -0.28711,0.0957 -0.0117,0.004 -0.0235,0.008 -0.0352,0.0117 -0.16832,0.0579 -0.33543,0.11797 -0.50196,0.17968 -0.18439,0.0683 -0.36669,0.13999 -0.54882,0.2129 -0.0266,0.0106 -0.0535,0.0205 -0.0801,0.0312 -0.19962,0.0807 -0.39891,0.1619 -0.59571,0.24804 -7.7e-4,3.4e-4 -10e-4,0.002 -0.002,0.002 -0.20142,0.0882 -0.40124,0.17965 -0.59961,0.27343 -0.18115,0.0856 -0.36053,0.17351 -0.53906,0.26368 -0.10226,0.0516 -0.20331,0.10508 -0.30469,0.1582 -0.0919,0.0481 -0.18423,0.0952 -0.27539,0.14453 -0.0467,0.0253 -0.0922,0.0525 -0.13867,0.0781 -0.16258,0.0895 -0.32422,0.18016 -0.48438,0.27344 -0.18078,0.1053 -0.35948,0.21222 -0.53711,0.32227 -0.0261,0.0162 -0.0521,0.0326 -0.0781,0.0488 -0.1429,0.0893 -0.285,0.18108 -0.42578,0.27343 -0.0588,0.0386 -0.11732,0.0781 -0.17578,0.11719 -0.10609,0.071 -0.21158,0.14215 -0.31641,0.21484 -0.078,0.0541 -0.15514,0.10906 -0.23242,0.16407 -0.10967,0.0781 -0.21989,0.15639 -0.32813,0.23632 -0.0412,0.0304 -0.0821,0.0611 -0.12304,0.0918 -0.15723,0.11774 -0.31271,0.23579 -0.4668,0.35742 -0.007,0.005 -0.013,0.0105 -0.0195,0.0156 -0.15544,0.12297 -0.30878,0.25009 -0.46094,0.37695 -0.0185,0.0154 -0.0382,0.0295 -0.0566,0.0449 -0.13901,0.11664 -0.27592,0.23564 -0.41211,0.35547 -0.0253,0.0223 -0.051,0.044 -0.0762,0.0664 -0.15746,0.13977 -0.31324,0.2818 -0.4668,0.42578 -0.15825,0.14838 -0.31473,0.29842 -0.46875,0.45117 -0.15237,0.15113 -0.30304,0.30368 -0.45117,0.45899 -0.002,0.002 -0.002,0.004 -0.004,0.006 -0.14967,0.15702 -0.29616,0.31537 -0.4414,0.47656 -0.12334,0.13688 -0.24517,0.27619 -0.36524,0.41601 2.88551,-1.30451 6.08567,-2.03125 9.45508,-2.03125 6.88359,0 13.06319,3.03256 17.2793,7.83204 1.52816,-3.01845 1.8703,-6.40345 2.45898,-9.85352 a 1.0001006,1.0001006 0 0 0 0.008,-0.0508 l 0.082,-0.65235 c -0.0278,-0.0167 -0.0562,-0.0322 -0.084,-0.0488 -0.14667,-0.0874 -0.29461,-0.17168 -0.44336,-0.25586 -0.0749,-0.0424 -0.14918,-0.0854 -0.22461,-0.12696 -0.14774,-0.0814 -0.29756,-0.16197 -0.44726,-0.24023 -0.0418,-0.0219 -0.083,-0.0448 -0.125,-0.0664 -0.013,-0.007 -0.0261,-0.0129 -0.0391,-0.0195 -0.17923,-0.0918 -0.36107,-0.18034 -0.54297,-0.26758 -0.0913,-0.0438 -0.18339,-0.0863 -0.27539,-0.1289 -0.13135,-0.0609 -0.26382,-0.12126 -0.39649,-0.17969 -0.0633,-0.0279 -0.12587,-0.0567 -0.18945,-0.084 -0.19081,-0.082 -0.38274,-0.16136 -0.57617,-0.23829 -0.0203,-0.008 -0.0402,-0.0174 -0.0605,-0.0254 -0.0264,-0.0104 -0.0536,-0.019 -0.0801,-0.0293 -0.18849,-0.0735 -0.37749,-0.14424 -0.56836,-0.21289 -0.0532,-0.0192 -0.10674,-0.0379 -0.16015,-0.0566 -0.16755,-0.0589 -0.33657,-0.11486 -0.50586,-0.16993 -0.0717,-0.0233 -0.14287,-0.0477 -0.21485,-0.0703 -0.16647,-0.0523 -0.33387,-0.10178 -0.50195,-0.15039 -0.034,-0.01 -0.0675,-0.0216 -0.10156,-0.0312 -0.10091,-0.0287 -0.20322,-0.0547 -0.30469,-0.082 -0.11234,-0.0303 -0.22487,-0.0613 -0.33789,-0.0898 -0.1098,-0.0278 -0.21965,-0.0539 -0.33008,-0.0801 -0.16975,-0.0403 -0.34054,-0.0788 -0.51172,-0.11524 -0.0255,-0.005 -0.0507,-0.0122 -0.0762,-0.0176 -0.005,-0.001 -0.0104,-0.003 -0.0156,-0.004 -0.24673,-0.0515 -0.49459,-0.0971 -0.74414,-0.14063 -0.003,-4.6e-4 -0.005,-0.001 -0.008,-0.002 -0.009,-0.002 -0.0183,-0.002 -0.0273,-0.004 -0.19551,-0.0338 -0.39269,-0.065 -0.58984,-0.0937 -0.10308,-0.0151 -0.20704,-0.0293 -0.31055,-0.043 -0.21095,-0.0279 -0.42206,-0.0541 -0.63477,-0.0762 -0.24233,-0.0252 -0.48596,-0.0469 -0.73047,-0.0645 -0.0643,-0.005 -0.12895,-0.008 -0.19336,-0.0117 -0.17846,-0.0113 -0.35756,-0.0221 -0.5371,-0.0293 -0.078,-0.003 -0.15617,-0.005 -0.23438,-0.008 -0.23453,-0.007 -0.46885,-0.0117 -0.70508,-0.0117 z"
           transform="matrix(0.26458333,0,0,0.26458333,0,284.3)" />
        <path
           id="path295652"
           style="color:#000000;fill:#46a05d;fill-opacity:1;stroke-width:0.811731;stroke-linecap:round;stroke-linejoin:round;-inkscape-stroke:none;paint-order:markers fill stroke"
           d="m 77.017519,334.03185 c -0.314389,0.004 -0.598059,0.0866 -0.836123,0.22789 -0.04588,0.0272 -0.08936,0.0571 -0.131776,0.0879 0.200044,0.60248 0.30851,1.2464 0.30851,1.91564 0,1.2708 -0.390787,2.45154 -1.058334,3.42822 0.02062,0.0207 0.04074,0.0418 0.06149,0.0625 l 0.141076,0.15089 c 0.0053,-0.003 0.01026,-0.007 0.0155,-0.01 0.05024,-0.0302 0.100052,-0.0609 0.149344,-0.0925 0.05476,-0.0351 0.109233,-0.0707 0.16278,-0.10749 0.01548,-0.0106 0.03061,-0.0218 0.04599,-0.0326 0.04093,-0.0287 0.08177,-0.0577 0.121957,-0.0873 0.0024,-0.002 0.0049,-0.003 0.0072,-0.005 0.0145,-0.0107 0.02849,-0.0222 0.04289,-0.0331 0.03674,-0.0277 0.07347,-0.0557 0.109553,-0.0842 0.02982,-0.0236 0.05901,-0.0477 0.08837,-0.0718 0.01961,-0.0161 0.03899,-0.0322 0.05839,-0.0486 0.03041,-0.0256 0.06054,-0.0513 0.09043,-0.0775 0.02411,-0.0211 0.04805,-0.0426 0.07183,-0.0641 0.02791,-0.0252 0.05576,-0.0507 0.0832,-0.0765 0.01956,-0.0183 0.03908,-0.0367 0.05839,-0.0553 0.02706,-0.0261 0.05352,-0.0525 0.0801,-0.0791 0.02866,-0.0286 0.05718,-0.0576 0.08527,-0.0868 0.01621,-0.0169 0.03256,-0.0336 0.04857,-0.0506 0.03094,-0.0329 0.06126,-0.0661 0.09147,-0.0997 0.0184,-0.0205 0.03716,-0.0408 0.05529,-0.0615 0.01666,-0.019 0.03267,-0.0386 0.04909,-0.0579 0.02913,-0.0341 0.05843,-0.0681 0.08682,-0.10284 0.04092,-0.0501 0.08107,-0.1005 0.120406,-0.15193 0.03903,-0.051 0.07729,-0.10274 0.114721,-0.15503 0.0021,-0.003 0.0041,-0.006 0.0062,-0.009 0.01932,-0.0271 0.03796,-0.0548 0.05684,-0.0822 0.01575,-0.0229 0.03158,-0.0456 0.04703,-0.0687 0.0026,-0.004 0.0051,-0.008 0.0078,-0.0119 0.01988,-0.0299 0.03903,-0.0602 0.05839,-0.0904 0.01813,-0.0283 0.03659,-0.0566 0.05426,-0.0853 0.01879,-0.0304 0.03703,-0.0612 0.05529,-0.092 0.01582,-0.0267 0.0316,-0.0532 0.04703,-0.0801 0.01864,-0.0325 0.03723,-0.0653 0.05529,-0.0982 0.01737,-0.0317 0.03434,-0.0636 0.05116,-0.0956 0.01236,-0.0235 0.02463,-0.0471 0.03669,-0.0708 0.02005,-0.0394 0.03971,-0.079 0.05891,-0.11885 0.01157,-0.024 0.02284,-0.0482 0.0341,-0.0724 0.0207,-0.0445 0.04081,-0.0893 0.06046,-0.13436 0.0073,-0.0167 0.01456,-0.0334 0.0217,-0.0501 0.02093,-0.0492 0.0408,-0.099 0.06046,-0.14883 0.0055,-0.0139 0.01168,-0.0274 0.01705,-0.0413 0.0011,-0.003 0.002,-0.006 0.0031,-0.008 0.02501,-0.0651 0.04902,-0.13076 0.07183,-0.19689 5.3e-5,-1.5e-4 -5.2e-5,-3.6e-4 0,-5.2e-4 0.02253,-0.0653 0.04426,-0.1311 0.0646,-0.1974 0.0105,-0.0342 0.02007,-0.0689 0.02997,-0.10335 0.0086,-0.0298 0.01721,-0.0594 0.02532,-0.0894 0.0087,-0.0321 0.01663,-0.0644 0.02481,-0.0966 0.0106,-0.0419 0.02128,-0.0839 0.03101,-0.12609 0.0052,-0.0225 0.01005,-0.0451 0.01499,-0.0677 0.01,-0.0456 0.0195,-0.091 0.02842,-0.13695 0.0052,-0.0269 0.01011,-0.0541 0.01499,-0.0811 0.0081,-0.0451 0.01562,-0.0905 0.02274,-0.13591 0.0061,-0.0388 0.01222,-0.0777 0.01757,-0.11679 5.69e-4,-0.004 0.0015,-0.008 0.0021,-0.0124 1.88e-4,-10e-4 3.33e-4,-0.003 5.18e-4,-0.004 0.0076,-0.0567 0.01413,-0.11339 0.02015,-0.17054 0.0019,-0.0177 0.0035,-0.0355 0.0052,-0.0532 0.0054,-0.0555 0.0101,-0.11148 0.01395,-0.16744 2.36e-4,-0.003 7.99e-4,-0.007 0.001,-0.0103 3.47e-4,-0.005 7.01e-4,-0.0104 10e-4,-0.0155 0.0036,-0.0556 0.0062,-0.11144 0.0083,-0.16744 6.9e-5,-0.002 -6.9e-5,-0.004 0,-0.006 4.81e-4,-0.0133 0.0012,-0.0265 0.0015,-0.0398 0.0018,-0.0614 0.0031,-0.12269 0.0031,-0.18449 0,-0.0431 -6.56e-4,-0.0863 -0.0015,-0.12919 l -0.09819,-0.078 a 0.26460995,0.26460995 0 0 0 -0.02325,-0.0155 c -0.421683,-0.26684 -0.828342,-0.39619 -1.197343,-0.41806 -0.04613,-0.003 -0.09203,-0.004 -0.136943,-0.003 z" />
        <path
           id="path299845"
           style="color:#000000;fill:#46a05d;fill-opacity:1;stroke-width:0.811731;stroke-linecap:round;stroke-linejoin:round;-inkscape-stroke:none;paint-order:markers fill stroke"
           d="m 70.953809,333.56573 c -0.130288,-9.1e-4 -0.240053,0.005 -0.318844,0.005 h -0.578776 c 0.26121,0.0138 0.574165,0.0633 0.871781,0.2186 0.52605,0.27441 0.953429,0.90438 0.953429,2.04897 a 0.26460995,0.26460995 0 0 0 0,5.1e-4 0.26460995,0.26460995 0 0 0 0,5.2e-4 0.26460995,0.26460995 0 0 0 0,5.2e-4 0.26460995,0.26460995 0 0 0 0,5.1e-4 0.26460995,0.26460995 0 0 0 0,5.2e-4 0.26460995,0.26460995 0 0 0 0,5.1e-4 0.26460995,0.26460995 0 0 0 0,5.2e-4 0.26460995,0.26460995 0 0 0 0,5.2e-4 c -0.0065,0.44762 -0.265134,0.73725 -0.429948,0.97255 -0.164735,0.23521 -0.270245,0.40271 -0.195337,0.77876 v 5.2e-4 c 0.06408,0.28306 0.02959,0.61062 -0.140559,0.90434 -0.149241,0.25761 -0.411338,0.47775 -0.771528,0.59531 0.287994,0.095 0.593757,0.12344 0.894001,0.045 0.445299,-0.0987 0.764804,-0.345 0.93586,-0.64027 0.170153,-0.29372 0.204639,-0.62128 0.14056,-0.90434 v -5.2e-4 c -0.07491,-0.37605 0.0306,-0.54355 0.195336,-0.77876 0.164815,-0.2353 0.423463,-0.52493 0.429948,-0.97255 a 0.26460995,0.26460995 0 0 0 0,-5.2e-4 0.26460995,0.26460995 0 0 0 0,-5.2e-4 0.26460995,0.26460995 0 0 0 0,-5.1e-4 0.26460995,0.26460995 0 0 0 0,-5.2e-4 0.26460995,0.26460995 0 0 0 0,-5.1e-4 0.26460995,0.26460995 0 0 0 0,-5.2e-4 0.26460995,0.26460995 0 0 0 0,-5.2e-4 0.26460995,0.26460995 0 0 0 0,-5.1e-4 c 0,-1.14459 -0.427379,-1.77456 -0.953428,-2.04897 -0.361662,-0.18865 -0.745866,-0.22127 -1.032495,-0.22325 z" />
      </g>
      <path
         id="path3484"
         style="color:#000000;display:inline;fill:#000000;stroke-width:1.03249;stroke-linecap:round;stroke-linejoin:round;-inkscape-stroke:none;paint-order:markers fill stroke"
         d="m 8.2755291,280.89344 c -4.2709351,0 -7.74109558,3.46753 -7.74109558,7.73846 0,4.27095 3.47016048,7.74111 7.74109558,7.74111 4.2709389,0 7.7391259,-3.47016 7.7391259,-7.74111 0,-4.27093 -3.468187,-7.73846 -7.7391259,-7.73846 z m 0,0.67309 c 1.1718146,0 2.2763239,0.28429 3.2484099,0.78745 -0.249259,1.51464 -0.396322,2.78696 -1.359969,3.79134 -0.3405621,0.35498 -0.5756061,0.44368 -0.8052009,0.42462 -0.229591,-0.0191 -0.52747,-0.18224 -0.9037936,-0.52388 -0.3367592,-0.30478 -0.7265708,-0.55669 -1.0760115,-0.80257 0.042916,-0.0115 0.08629,-0.0244 0.1294912,-0.0374 0.1776096,-0.0543 0.2775644,-0.24235 0.223483,-0.42001 -0.054288,-0.17761 -0.2423501,-0.27757 -0.4200195,-0.22349 -0.5011975,0.15138 -0.9976621,0.22151 -1.334331,0.22151 -0.00267,-2e-5 -0.00471,-2e-5 -0.00725,0 -1.0849202,0.0217 -2.2976387,-0.64183 -2.8520527,-0.98596 1.4190541,-1.41906 3.4882185,-2.20496 5.1572291,-2.23155 z m 0.6969289,8.40064 c -0.034648,-1.36522 -0.5641535,-2.12516 -1.210925,-2.46255 -0.5018361,-0.26177 -1.037481,-0.2875 -1.4092637,-0.28395 -1.6578236,0.015 -3.3383073,0.005 -5.0047319,0.005 0.2170074,-1.07718 0.6786812,-2.06495 1.324472,-2.90333 0.5504061,0.36736 1.9053837,1.16262 3.3108519,1.13451 0.1788307,-2.2e-4 0.3782278,-0.0153 0.5909182,-0.0446 0.1273809,0.17956 0.3299287,0.31328 0.4824653,0.42725 0.2870762,0.20135 0.6280558,0.41856 0.9438899,0.70529 0.4234423,0.38442 0.8342031,0.65709 1.3040951,0.69609 0.469892,0.039 0.9257122,-0.19284 1.3441912,-0.62904 1.070907,-1.11619 1.272764,-2.48059 1.498004,-3.89388 l -1.7e-5,10e-6 c 1.776036,1.16349 2.994298,3.10543 3.172159,5.34456 -0.342959,-0.14822 -0.673785,-0.22749 -0.983332,-0.24583 -0.05866,-0.004 -0.117059,-0.005 -0.174187,-0.004 -0.399891,0.005 -0.76071,0.11015 -1.063519,0.28988 -0.69214,0.41082 -1.077984,1.1524 -1.077984,1.8582 0,0.31341 -0.05542,0.48302 -0.1216,0.59881 -0.226532,0.2712 -0.545747,0.49048 -0.717776,0.73289 -0.137004,0.21015 -0.221512,0.4945 -0.221512,0.85451 0,0.87845 0.10205,1.45674 0.303018,1.90553 0.133368,0.29781 0.308375,0.52369 0.497579,0.73092 -1.027631,0.58286 -2.2161784,0.91628 -3.4837223,0.91628 -2.8320918,0 -5.2712557,-1.66097 -6.3995322,-4.0628 0.1858341,0.0224 0.3690544,0.0401 0.5442472,0.0533 0.5888818,0.0444 1.0996573,0.57574 1.4933992,1.1654 0.3097058,0.46381 0.7490362,0.88548 1.252171,1.17 0.5000757,0.28279 1.0797981,0.43093 1.6445812,0.2833 0.5663972,-0.12555 0.9721453,-0.43948 1.1897213,-0.81505 0.212553,-0.36691 0.2583323,-0.77502 0.1827318,-1.13058 -0.078557,-0.37857 0.063064,-0.75006 0.2445341,-1.01028 0.2096376,-0.29928 0.5386302,-0.66834 0.5468789,-1.2377 z M 6.362113,287.8977 c 0.3442803,0.001 0.7484702,0.0262 1.0865255,0.20244 0.4503546,0.23492 0.8511852,0.70744 0.8518682,2.00742 -0.00534,0.31436 -0.1865579,0.51988 -0.4246202,0.85976 -0.052748,0.0753 -0.1059292,0.15852 -0.1557814,0.24911 -0.045282,-0.0744 -0.090475,-0.14616 -0.1347469,-0.21427 -0.1011594,-0.15695 -0.3110616,-0.20144 -0.4673442,-0.0992 -0.1560918,0.10202 -0.1992763,0.31105 -0.096618,0.46669 0.1223631,0.18826 0.2504105,0.40455 0.3450855,0.60143 0.199509,0.41044 0.1815272,0.80001 0.050014,1.18774 -0.1258228,0.2172 -0.3422171,0.40742 -0.7299872,0.50065 -0.387765,0.0932 -0.7928058,0.005 -1.1906473,-0.21998 -0.3978453,-0.22497 -0.7711099,-0.58244 -1.0207992,-0.95638 -0.4346255,-0.65087 -1.0692471,-1.39266 -2.0047839,-1.46315 -0.2841482,-0.0214 -0.5876442,-0.0589 -0.8873637,-0.10774 -0.24314,-0.71518 -0.3746638,-1.48215 -0.3746638,-2.2802 0,-0.2476 0.01272,-0.49192 0.037472,-0.73289 h 4.7970225 c 0.096873,0 0.2046872,-0.001 0.3194516,-0.001 z m 7.942227,0.57908 c 0.299885,0.0188 0.643518,0.12186 1.034601,0.34443 -0.06065,2.31667 -1.232537,4.35334 -3.002572,5.59762 -0.198199,-0.20637 -0.34767,-0.38961 -0.460772,-0.64219 -0.147253,-0.32884 -0.243205,-0.80329 -0.243205,-1.62946 0,-0.26487 0.05003,-0.3924 0.111742,-0.48706 0.135444,-0.16552 0.263535,-0.25794 0.411474,-0.37861 0.09999,-0.0634 0.574947,-0.35572 1.05169,-0.50547 0.177886,-0.0553 0.276748,-0.24494 0.220855,-0.42265 -0.05532,-0.17788 -0.244281,-0.27674 -0.421992,-0.22085 -0.112734,0.0354 -0.22315,0.0763 -0.328652,0.11969 0.01018,-0.0909 0.01511,-0.18787 0.01511,-0.29119 0,-0.44619 0.278683,-0.99898 0.750644,-1.27911 0.235983,-0.14006 0.520601,-0.2265 0.86107,-0.20508 z"
         sodipodi:nodetypes="sssssccscccccccccccsccccccscccccsccsccsscsccsscscccccccsccccccccsccscsccsccssccccccssss" />
    </g>
  </g>
</svg>
