<?xml version="1.0" encoding="UTF-8" standalone="no"?>
<svg
   xmlns:dc="http://purl.org/dc/elements/1.1/"
   xmlns:cc="http://creativecommons.org/ns#"
   xmlns:rdf="http://www.w3.org/1999/02/22-rdf-syntax-ns#"
   xmlns:svg="http://www.w3.org/2000/svg"
   xmlns="http://www.w3.org/2000/svg"
   xmlns:sodipodi="http://sodipodi.sourceforge.net/DTD/sodipodi-0.dtd"
   xmlns:inkscape="http://www.inkscape.org/namespaces/inkscape"
   inkscape:export-ydpi="768"
   inkscape:export-xdpi="768"
   inkscape:export-filename="E:\TR Design Studio Creative\Project Design\TR Creative Design\Icon Design\Project Hiring\Icon Icons\006 - Ecology\Send\4 - Filled Line\4 - Earth.png"
   sodipodi:docname="home2.svg"
   inkscape:version="1.0 (4035a4fb49, 2020-05-01)"
   id="svg979"
   version="1.1"
   viewBox="0 0 16.933334 7.0555554"
   height="20pt"
   width="48pt">
  <defs
     id="defs973">
    <rect
       x="16.036173"
       y="86.595329"
       width="192.9686"
       height="65.748306"
       id="rect867" />
    <rect
       x="16.036173"
       y="86.595329"
       width="192.9686"
       height="65.748306"
       id="rect902" />
  </defs>
  <sodipodi:namedview
     inkscape:snap-text-baseline="false"
     inkscape:document-rotation="0"
     inkscape:snap-global="true"
     showguides="false"
     inkscape:bbox-nodes="true"
     inkscape:snap-nodes="false"
     inkscape:snap-bbox="true"
     inkscape:pagecheckerboard="0"
     inkscape:window-maximized="1"
     inkscape:window-y="-8"
     inkscape:window-x="-8"
     inkscape:window-height="829"
     inkscape:window-width="1600"
     units="pt"
     showgrid="false"
     inkscape:current-layer="layer1"
     inkscape:document-units="px"
     inkscape:cy="11.660559"
     inkscape:cx="34.608798"
     inkscape:zoom="10.871767"
     inkscape:pageshadow="2"
     inkscape:pageopacity="0.0"
     borderopacity="1.0"
     bordercolor="#666666"
     pagecolor="#ffffff"
     id="base">
    <inkscape:grid
       id="grid1526"
       type="xygrid" />
    <sodipodi:guide
       inkscape:locked="false"
       id="guide1528"
       orientation="56.666615,0"
       position="0.97013909,15.963209" />
    <sodipodi:guide
       inkscape:locked="false"
       id="guide1530"
       orientation="0,56.666667"
       position="0.97013909,0.97016731" />
    <sodipodi:guide
       inkscape:locked="false"
       id="guide1532"
       orientation="-56.666615,0"
       position="15.963195,0.97016731" />
    <sodipodi:guide
       inkscape:locked="false"
       id="guide1534"
       orientation="0,-56.666667"
       position="15.963195,15.963209" />
  </sodipodi:namedview>
  <metadata
     id="metadata976">
    <rdf:RDF>
      <cc:Work
         rdf:about="">
        <dc:format>image/svg+xml</dc:format>
        <dc:type
           rdf:resource="http://purl.org/dc/dcmitype/StillImage" />
        <dc:title />
      </cc:Work>
    </rdf:RDF>
  </metadata>
  <g
     transform="translate(0,-280.06668)"
     id="layer1"
     inkscape:groupmode="layer"
     inkscape:label="Layer 1">
    <g
       id="g847"
       transform="matrix(0.03365362,0,0,0.04795015,0.10499906,279.3697)"
       style="stroke-width:24.8937">
      <path
         style="fill:#00e5b9;stroke-width:24.8937"
         d="m 166.40346,99.105522 -5.32365,-9.530801 -0.0456,0.986993 c -0.0322,0.697263 -0.12282,1.049891 -0.30862,1.201268 -0.23208,0.189077 -0.24012,0.18376 -0.0684,-0.04521 0.15084,-0.201087 0.18557,-1.70395 0.15431,-6.677517 l -0.0404,-6.418028 -2.30928,1.169232 -2.30927,1.169233 -0.18065,-0.431974 c -0.0994,-0.237587 -4.32154,-7.837232 -9.38259,-16.8881 l -9.20192,-16.456124 -1.77157,-0.924455 c -0.97437,-0.508451 -1.77157,-0.965486 -1.77157,-1.015635 0,-0.05015 1.82277,0.880388 4.0506,2.067862 2.22783,1.187476 8.96121,4.737222 14.96309,7.888329 6.00186,3.151107 11.32716,6.0469 11.83398,6.435096 1.11129,0.851152 2.06618,2.064262 2.66343,3.383639 0.8837,1.952166 0.89411,2.124643 0.89703,14.857438 l 0.003,11.660546 0.82969,0.651741 c 1.03194,0.810625 2.0091,2.308645 2.41505,3.702348 0.28925,0.993046 0.30688,1.446351 0.26839,6.903877 l -0.0411,5.84104 z m -7.2525,-6.145319 c 0,-0.03334 0.12152,-0.159769 0.27004,-0.280958 0.24475,-0.1997 0.25019,-0.194022 0.0583,0.06062 -0.20158,0.267432 -0.3283,0.352479 -0.3283,0.220342 z m 0.77154,-0.64219 c 0,-0.03334 0.12152,-0.159769 0.27004,-0.280958 0.24475,-0.1997 0.2502,-0.194022 0.0583,0.06062 -0.20159,0.267432 -0.32831,0.352479 -0.32831,0.220342 z"
         id="path861" />
      <path
         style="fill:#00cfbc;stroke-width:24.8937"
         d="m 162.7162,128.08721 c -2.51284,-0.70306 -4.49546,-2.82082 -5.1928,-5.54674 -0.18179,-0.71065 -0.2208,-2.99479 -0.22231,-13.01549 -0.002,-8.40013 0.0518,-12.416321 0.17181,-13.004349 0.35475,-1.738252 1.33688,-3.297284 2.76357,-4.386909 0.74485,-0.568873 0.7523,-0.583513 0.79761,-1.565586 l 0.0457,-0.991342 5.36223,9.596578 5.36222,9.596578 v 6.46071 c 0,5.20886 -0.0446,6.63886 -0.23018,7.38015 -1.02654,4.10054 -4.9985,6.55621 -8.85788,5.4764 z m -16.33519,-12.70545 -0.0377,-9.98939 -7.73974,-13.851919 c -4.25685,-7.618558 -7.79978,-13.8933 -7.87317,-13.943873 -0.0734,-0.05057 0.75348,-0.529479 1.83745,-1.064237 5.91335,-2.917234 15.09557,-7.482905 15.15015,-7.533092 0.0347,-0.0319 -1.42354,-0.807649 -3.24048,-1.723892 -3.01489,-1.520336 -12.23999,-6.210848 -23.14505,-11.768126 -2.341,-1.192981 -4.2598,-2.2532 -4.26401,-2.35604 -0.004,-0.102842 -2.93223,-5.411709 -6.50668,-11.797483 -3.57447,-6.385774 -6.49902,-11.647066 -6.49902,-11.69176 0,-0.0793 13.98592,7.257556 26.88644,14.10432 l 6.44054,3.418226 9.28437,16.616672 c 5.10639,9.139169 9.31212,16.726205 9.34605,16.860077 0.0453,0.178816 -1.19972,0.9096 -4.69183,2.753872 l -4.75355,2.510466 -0.0781,19.722789 c -0.0521,13.167 -0.0906,16.40235 -0.11573,9.73339 z M 128.90647,78.330719 c 0.21218,-0.126194 0.45521,-0.229443 0.54008,-0.229443 0.0849,0 -0.0193,0.103249 -0.23146,0.229443 -0.21217,0.126193 -0.45521,0.229443 -0.54008,0.229443 -0.0849,0 0.0193,-0.10325 0.23146,-0.229443 z M 92.964749,35.290597 c 0.0074,-0.187029 0.04398,-0.225072 0.09323,-0.097 0.04458,0.115896 0.0391,0.254368 -0.01219,0.307716 -0.05128,0.05335 -0.08776,-0.04147 -0.08106,-0.210718 z m 1.993836,-4.00031 c 0.199321,-0.220753 0.397129,-0.401369 0.439564,-0.401369 0.04243,0 -0.08594,0.180616 -0.285255,0.401369 -0.19932,0.220753 -0.397128,0.401369 -0.439563,0.401369 -0.04243,0 0.08593,-0.180616 0.285254,-0.401369 z m 5.362225,-2.444079 c 0.27583,-0.03561 0.72718,-0.03561 1.003,0 0.27583,0.03561 0.0502,0.06475 -0.5015,0.06475 -0.55165,0 -0.77733,-0.02914 -0.5015,-0.06475 z"
         id="path859" />
      <path
         style="fill:#00b2c1;stroke-width:24.8937"
         d="m 134.36358,134.47557 c 0.0366,-0.0626 -1.40629,-2.74941 -3.20653,-5.97076 l -3.27313,-5.857 2.90305,-1.52007 2.90307,-1.52006 V 106.0786 c 0,-12.82485 -0.014,-13.522647 -0.27004,-13.405576 -0.70193,0.321026 -2.2112,1.073058 -9.52207,4.744674 -4.32479,2.171965 -7.9079,3.895422 -7.96247,3.829902 -0.23851,-0.28644 -7.12323,-12.739533 -7.07055,-12.789237 0.0588,-0.05549 2.66969,-1.361941 13.4063,-6.708372 7.3474,-3.658735 8.47934,-4.205326 8.54456,-4.125986 0.0292,0.03549 3.53627,6.300521 7.79357,13.922294 l 7.74055,13.857771 -0.0418,10.38491 -0.0419,10.38491 -0.49809,1.09414 c -0.75841,1.66598 -1.75053,2.56965 -3.98877,3.63324 -1.0119,0.48083 -2.80078,1.36533 -3.97531,1.96554 -2.55892,1.30765 -3.53003,1.76175 -3.44044,1.60876 z M 99.545825,108.15696 c 0.273928,-0.0355 0.760005,-0.036 1.080155,-0.001 0.32016,0.0348 0.096,0.0638 -0.49806,0.0645 -0.594085,6.4e-4 -0.856024,-0.0277 -0.582095,-0.0632 z m -6.581076,-8.326248 c 0.0074,-0.18703 0.04398,-0.225072 0.09323,-0.097 0.04458,0.115894 0.0391,0.254368 -0.01219,0.307718 -0.05128,0.0533 -0.08776,-0.04148 -0.08106,-0.21072 z m 1.685219,-3.659558 c 0,-0.03334 0.121518,-0.159769 0.27004,-0.280958 0.244749,-0.1997 0.250196,-0.194022 0.05827,0.06062 -0.201588,0.267432 -0.328307,0.352479 -0.328307,0.220342 z M 107.04217,48.165294 C 96.491965,42.80539 95.837944,42.412244 94.524099,40.640406 c -1.305096,-1.760045 -1.776694,-3.56998 -1.432308,-5.496978 0.634995,-3.553008 3.884642,-6.18108 7.642999,-6.18108 0.84724,0 1.62581,0.108335 2.27017,0.31589 l 0.98068,0.315891 6.2128,11.123122 c 3.41703,6.117717 6.38947,11.430169 6.60543,11.805449 0.21595,0.37528 0.33664,0.680658 0.26817,0.678617 -0.0685,-0.002 -4.5819,-2.268251 -10.02987,-5.036023 z M 74.975624,41.485056 c 0.153612,-0.176602 0.314014,-0.321095 0.356449,-0.321095 0.04244,0 -0.04853,0.144493 -0.202141,0.321095 -0.153613,0.176603 -0.314015,0.321095 -0.35645,0.321095 -0.04243,0 0.04853,-0.144492 0.202142,-0.321095 z m 2.279502,-5.137521 c 0,-0.397355 0.03009,-0.55991 0.06687,-0.361232 0.03678,0.198677 0.03678,0.523786 0,0.722464 -0.03678,0.198677 -0.06687,0.03612 -0.06687,-0.361232 z m -2.130994,-5.017111 -0.765743,-0.842875 0.81012,0.796703 c 0.445566,0.438186 0.81012,0.81748 0.81012,0.842874 0,0.1198 -0.142956,-0.01349 -0.854497,-0.796702 z m -5.973658,-2.48138 c 0.190957,-0.03827 0.503432,-0.03827 0.694389,0 0.190957,0.03827 0.03472,0.06958 -0.347194,0.06958 -0.381914,0 -0.538151,-0.03131 -0.347195,-0.06958 z"
         id="path857" />
      <path
         style="fill:#0090c7;stroke-width:24.8937"
         d="m 109.54862,146.68145 c -0.0487,-0.15322 -1.46632,-2.73495 -3.15018,-5.73719 l -3.06156,-5.45861 12.26517,-6.39261 c 6.74583,-3.51593 12.31369,-6.33354 12.37302,-6.26135 0.0593,0.0722 1.45196,2.5515 3.09476,5.50959 1.64282,2.95809 3.08625,5.54128 3.20762,5.74042 0.23828,0.39094 0.24792,0.38554 -8.37999,4.69143 -4.76433,2.37771 -14.88956,7.46462 -15.53692,7.80574 -0.66479,0.35031 -0.73046,0.35861 -0.81192,0.10258 z M 69.846985,108.15763 c 0.234558,-0.0369 0.581752,-0.0359 0.771543,0.002 0.18979,0.0381 -0.0021,0.0683 -0.426471,0.0671 -0.424348,-0.001 -0.579631,-0.0324 -0.345072,-0.0693 z m 28.140308,-0.22359 c -1.017357,-0.24856 -2.69699,-1.27037 -3.342602,-2.03349 -1.805441,-2.13401 -2.189052,-5.4871 -0.931746,-8.144289 0.627079,-1.325288 1.933224,-2.565926 3.697048,-3.511631 1.41643,-0.759446 11.072537,-5.548695 11.301347,-5.605257 0.0748,-0.01849 1.73352,2.820122 3.68606,6.308017 l 3.5501,6.34163 -2.35467,1.20611 c -6.47507,3.31664 -10.00958,5.02313 -10.98886,5.30547 -1.16504,0.3359 -3.510532,0.4037 -4.616677,0.13344 z m -22.780207,-1.64839 c 0,-0.0333 0.121518,-0.15977 0.27004,-0.28096 0.244743,-0.1997 0.250201,-0.19402 0.05826,0.0606 -0.201584,0.26743 -0.328301,0.35248 -0.328301,0.22034 z m 2.050146,-5.15718 c 0.0012,-0.4415 0.03113,-0.60307 0.06659,-0.35902 0.03547,0.24404 0.03452,0.60527 -0.0021,0.80273 -0.03663,0.19747 -0.06565,-0.002 -0.06449,-0.44371 z m -1.980252,-5.097384 -0.609974,-0.682327 0.655812,0.634636 c 0.609898,0.590205 0.726721,0.730018 0.609974,0.730018 -0.02521,0 -0.320326,-0.307047 -0.655812,-0.682327 z M 56.290219,51.623229 c 0.05518,-0.0929 -1.498811,-3.025868 -3.453321,-6.517713 -1.954509,-3.491845 -3.553654,-6.408259 -3.553654,-6.48092 0,-0.235475 17.187778,-9.159 18.136586,-9.416125 1.161723,-0.314825 2.993924,-0.314833 4.15561,-1.9e-5 2.089562,0.566268 4.025996,2.206279 4.982431,4.219741 0.55769,1.17403 0.578073,1.276793 0.578073,2.914391 0,1.592846 -0.0311,1.763186 -0.504716,2.764125 -0.581708,1.229394 -1.554818,2.415328 -2.794431,3.405592 -0.532496,0.425383 -3.993835,2.289144 -8.968386,4.829034 -4.45566,2.274955 -8.231098,4.207049 -8.389863,4.293541 -0.197956,0.107844 -0.257133,0.104185 -0.188329,-0.01164 z"
         id="path855" />
      <path
         style="fill:#006dcd;stroke-width:24.8937"
         d="m 81.256562,149.47232 c -2.733123,-4.89024 -4.969315,-8.93628 -4.969315,-8.99121 0,-0.0549 1.984754,0.93313 4.410563,2.19568 l 4.410564,2.29554 9.11598,-4.70978 c 5.013795,-2.59038 9.163296,-4.65264 9.221126,-4.58279 0.16363,0.19759 5.99046,10.69277 6.0871,10.96394 0.0656,0.18417 -1.2301,0.90041 -5.50812,3.04472 -3.07666,1.54214 -8.229368,4.12495 -11.450467,5.73957 -3.221084,1.61463 -5.967134,2.93568 -6.102321,2.93568 -0.162078,0 -1.938355,-3.02841 -5.21511,-8.89135 z M 36.549364,106.10544 c 1.1e-5,-7.505593 0.01889,-10.552587 0.04196,-6.771091 0.02307,3.781491 0.02306,9.922441 -1.8e-5,13.646541 -0.02308,3.7241 -0.04196,0.63015 -0.04195,-6.87545 z m 31.79099,1.89766 c -0.169739,-0.0396 -0.655811,-0.18658 -1.08016,-0.32669 -0.909333,-0.30025 -12.568021,-6.07026 -12.838337,-6.35383 -0.229489,-0.24074 -12.736516,-22.610516 -12.670414,-22.662003 0.02631,-0.02049 4.080992,1.992053 9.010404,4.472321 4.929414,2.480269 11.977459,6.021476 15.662322,7.869351 3.684864,1.847875 7.046946,3.587929 7.471294,3.866789 1.134378,0.745453 2.456229,2.309664 2.876717,3.404162 0.303437,0.789825 0.356791,1.216793 0.356791,2.85527 0,2.36002 -0.303876,3.31037 -1.490393,4.6611 -1.451109,1.65194 -3.079643,2.33432 -5.498845,2.3041 -0.819919,-0.0102 -1.629639,-0.051 -1.799379,-0.0906 z M 4.5962472,75.481 4.3022909,75.119768 4.6494852,75.425609 c 0.3262763,0.287416 0.4174418,0.416623 0.2939564,0.416623 -0.029282,0 -0.1855191,-0.162555 -0.3471944,-0.361232 z M 33.011095,63.467601 c 0.07256,-0.122148 -5.119206,-9.642838 -6.649811,-12.194466 l -0.340262,-0.56724 11.51074,-6.01521 c 6.330907,-3.308366 11.547546,-6.032484 11.592533,-6.053597 0.07127,-0.03345 7.093799,12.410656 7.232763,12.816637 0.02903,0.0848 -3.477637,1.96721 -7.792584,4.183137 -11.863654,6.092543 -15.654643,8.001213 -15.553379,7.830739 z"
         id="path853" />
      <path
         style="fill:#004ed2;stroke-width:24.8937"
         d="m 83.771213,158.2923 c -0.424349,-0.12524 -1.917284,-0.80383 -3.317635,-1.50798 -1.40035,-0.70415 -6.816581,-3.40723 -12.036069,-6.00685 -5.219488,-2.59962 -10.462123,-5.21093 -11.650299,-5.80291 l -2.16032,-1.07634 -4.937875,-8.84976 c -2.715831,-4.86737 -5.355452,-9.58119 -5.865823,-10.47517 l -0.92795,-1.62541 16.637024,8.69242 16.637024,8.69242 5.008037,8.96073 c 2.754421,4.9284 4.974312,8.99581 4.933092,9.0387 -0.184228,0.19168 -1.618207,0.16704 -2.319206,-0.0399 z M 30.110402,100.05172 23.822327,88.798588 V 87.379676 85.960764 L 22.70359,85.377075 c -0.615306,-0.321029 -1.142027,-0.647496 -1.170494,-0.725484 -0.02847,-0.07799 -0.125993,-0.09406 -0.216728,-0.03571 -0.09235,0.05938 -0.120407,0.03106 -0.06374,-0.06434 0.05568,-0.09373 -2.919465,-5.574731 -6.611427,-12.179999 -3.691961,-6.60527 -6.7126583,-12.048819 -6.7126583,-12.096778 0,-0.181759 18.1009723,-9.492929 18.2116873,-9.368121 0.06391,0.07205 1.663442,2.904509 3.554517,6.294363 2.942929,5.27536 3.403932,6.189052 3.199661,6.341628 -0.131259,0.09804 -2.4996,1.3342 -5.26298,2.747019 -2.763378,1.412818 -5.028654,2.611644 -5.033947,2.66406 -0.0053,0.05241 0.771565,0.480384 1.726349,0.951045 0.954784,0.47066 3.541382,1.768767 5.747995,2.884681 2.206613,1.115915 5.714368,2.878886 7.795012,3.917714 l 3.782991,1.888778 5.979806,10.704353 c 3.288894,5.887394 6.159382,11.017146 6.378863,11.399446 l 0.399056,0.69509 -0.440412,-0.23437 c -0.402163,-0.21403 -4.837527,-2.420124 -13.907105,-6.917233 -1.890149,-0.937222 -3.469328,-1.70404 -3.509286,-1.70404 -0.03996,0 -0.09057,4.222277 -0.112463,9.382843 l -0.03981,9.38283 z"
         id="path851" />
      <path
         style="fill:#0039d6;stroke-width:24.8937"
         d="m 47.431541,140.29593 c -7.297127,-3.65201 -17.2193,-8.5936 -19.514608,-9.71897 -2.258692,-1.10741 -3.541828,-2.72902 -3.942106,-4.98198 -0.09794,-0.55126 -0.139595,-7.37126 -0.114605,-18.76417 l 0.03926,-17.898144 6.288075,11.255524 6.288075,11.25553 v 4.11096 4.11097 l 3.273052,1.72892 3.273052,1.72891 5.376551,9.63286 c 2.957103,5.29807 5.54933,9.9399 5.760504,10.31518 0.211176,0.37528 0.328949,0.67753 0.261718,0.67167 -0.06723,-0.006 -3.212264,-1.55712 -6.988968,-3.44726 z M 13.6893,80.668092 5.9480568,76.677413 4.8088089,75.497222 C 3.0187984,73.64288 2.0748264,71.379468 2.0674952,68.924232 2.064409,67.892444 2.5229493,65.87788 2.9656669,64.978127 3.8260838,63.229465 5.4359822,61.577855 7.1724584,60.662339 l 0.7143901,-0.376646 6.6069055,11.832094 c 3.633798,6.507654 6.706475,11.99465 6.828172,12.193328 0.121697,0.198678 0.195921,0.358178 0.164942,0.354444 -0.03098,-0.0037 -3.539884,-1.802593 -7.797568,-3.997467 z"
         id="path849" />
    </g>
    <text
       xml:space="preserve"
       id="text865"
       style="font-style:normal;font-weight:normal;font-size:10.5833px;line-height:0;font-family:sans-serif;white-space:pre;shape-inside:url(#rect867);fill:#000000;fill-opacity:1;stroke:none;stroke-width:9.9378;"
       transform="matrix(0.08390657,0,0,0.12067604,5.316647,269.94324)"><tspan
         x="16.037109"
         y="108.30687"><tspan
           style="font-style:normal;font-variant:normal;font-weight:normal;font-stretch:normal;font-size:22.5778px;line-height:1.35;font-family:'Franklin Gothic Heavy';-inkscape-font-specification:'Franklin Gothic Heavy, ';fill:#004cd4;fill-opacity:1;stroke-width:9.9378">Avanzatech</tspan><tspan
           style="line-height:1.35;stroke-width:9.9378">
</tspan></tspan></text>
    <text
       transform="scale(0.83384913,1.1992577)"
       xml:space="preserve"
       style="font-style:normal;font-variant:normal;font-weight:normal;font-stretch:normal;font-size:2.27191px;line-height:1.25;font-family:'Franklin Gothic Heavy';-inkscape-font-specification:'Franklin Gothic Heavy, Normal';font-variant-ligatures:normal;font-variant-caps:normal;font-variant-numeric:normal;font-variant-east-asian:normal;fill:#000000;fill-opacity:1;stroke:none;stroke-width:0.264582"
       x="8.0972557"
       y="238.32382"
       id="text873"><tspan
         sodipodi:role="line"
         id="tspan871"
         x="8.0972557"
         y="238.32382"
         style="font-style:normal;font-variant:normal;font-weight:normal;font-stretch:normal;font-size:2.27191px;font-family:'Franklin Gothic Heavy';-inkscape-font-specification:'Franklin Gothic Heavy, Normal';font-variant-ligatures:normal;font-variant-caps:normal;font-variant-numeric:normal;font-variant-east-asian:normal;fill:#004cd4;fill-opacity:1;stroke-width:0.264582">Blog</tspan></text>
  </g>
</svg>
