<?xml version="1.0" encoding="UTF-8" standalone="no"?>
<svg
   xmlns:dc="http://purl.org/dc/elements/1.1/"
   xmlns:cc="http://creativecommons.org/ns#"
   xmlns:rdf="http://www.w3.org/1999/02/22-rdf-syntax-ns#"
   xmlns:svg="http://www.w3.org/2000/svg"
   xmlns="http://www.w3.org/2000/svg"
   xmlns:xlink="http://www.w3.org/1999/xlink"
   xmlns:sodipodi="http://sodipodi.sourceforge.net/DTD/sodipodi-0.dtd"
   xmlns:inkscape="http://www.inkscape.org/namespaces/inkscape"
   inkscape:version="1.0 (4035a4fb49, 2020-05-01)"
   sodipodi:docname="liked2.svg"
   id="svg4"
   version="1.1"
   fill="#5f6368"
   width="24px"
   viewBox="0 -960 960 960"
   height="24px">
  <metadata
     id="metadata10">
    <rdf:RDF>
      <cc:Work
         rdf:about="">
        <dc:format>image/svg+xml</dc:format>
        <dc:type
           rdf:resource="http://purl.org/dc/dcmitype/StillImage" />
        <dc:title></dc:title>
      </cc:Work>
    </rdf:RDF>
  </metadata>
  <defs
     id="defs8">
    <linearGradient
       id="linearGradient893"
       inkscape:collect="always">
      <stop
         id="stop889"
         offset="0"
         style="stop-color:#004cd0;stop-opacity:1" />
      <stop
         id="stop891"
         offset="1"
         style="stop-color:#00f0b7;stop-opacity:1" />
    </linearGradient>
    <linearGradient
       id="linearGradient887"
       inkscape:collect="always">
      <stop
         id="stop883"
         offset="0"
         style="stop-color:#004cd4;stop-opacity:1" />
      <stop
         id="stop885"
         offset="1"
         style="stop-color:#00f0b7;stop-opacity:1" />
    </linearGradient>
    <linearGradient
       gradientUnits="userSpaceOnUse"
       y2="11.312845"
       x2="21.59947"
       y1="11.576168"
       x1="2.5873487"
       id="linearGradient875"
       xlink:href="#linearGradient887"
       inkscape:collect="always" />
    <linearGradient
       gradientUnits="userSpaceOnUse"
       y2="-570.2821"
       x2="878.74609"
       y1="-571.7868"
       x1="79.749222"
       id="linearGradient895"
       xlink:href="#linearGradient893"
       inkscape:collect="always" />
    <linearGradient
       gradientUnits="userSpaceOnUse"
       y2="11.312845"
       x2="21.59947"
       y1="11.576168"
       x1="2.5873487"
       id="linearGradient913"
       xlink:href="#linearGradient887"
       inkscape:collect="always" />
  </defs>
  <sodipodi:namedview
     inkscape:current-layer="g859"
     inkscape:window-maximized="1"
     inkscape:window-y="-8"
     inkscape:window-x="-8"
     inkscape:cy="12"
     inkscape:cx="12"
     inkscape:zoom="26.583333"
     showgrid="false"
     id="namedview6"
     inkscape:window-height="829"
     inkscape:window-width="1600"
     inkscape:pageshadow="2"
     inkscape:pageopacity="0"
     guidetolerance="10"
     gridtolerance="10"
     objecttolerance="10"
     borderopacity="1"
     bordercolor="#666666"
     pagecolor="#ffffff" />
  <g
     transform="translate(-10.532916,-7.5235107)"
     id="g859">
    <path
       d="m 480,-120 -58,-52 Q 321,-263 255,-329 189,-395 150,-447.5 111,-500 95.5,-544 80,-588 80,-634 q 0,-94 63,-157 63,-63 157,-63 52,0 99,22 47,22 81,62 34,-40 81,-62 47,-22 99,-22 94,0 157,63 63,63 63,157 0,46 -15.5,90 -15.5,44 -54.5,96.5 -39,52.5 -105,118.5 -66,66 -167,157 z m 0,-108 q 96,-86 158,-147.5 62,-61.5 98,-107 36,-45.5 50,-81 14,-35.5 14,-70.5 0,-60 -40,-100 -40,-40 -100,-40 -47,0 -87,26.5 -40,26.5 -55,67.5 h -76 q -15,-41 -55,-67.5 -40,-26.5 -87,-26.5 -60,0 -100,40 -40,40 -40,100 0,35 14,70.5 14,35.5 50,81 36,45.5 98,107 62,61.5 158,147.5 z m 0,-273 z"
       id="path2"
       style="fill:url(#linearGradient895);fill-opacity:1" />
    <path
       style="opacity:0.998;fill:url(#linearGradient875);fill-rule:evenodd;stroke:url(#linearGradient913);stroke-width:1.13386;stroke-opacity:1;paint-order:stroke fill markers;fill-opacity:1"
       d="M 11.605016,17.916057 C 7.7358576,14.383243 6.0553631,12.643758 5.0219858,11.101946 4.2680145,9.9770107 3.9255659,8.8120954 4.0419676,7.7681951 4.0999692,7.248033 4.1701102,6.9989177 4.3809475,6.5642633 4.981672,5.3258318 6.2843764,4.587981 7.711209,4.6780058 8.4082303,4.7219838 9.0303498,4.9287369 9.6177363,5.3116149 10.219162,5.7036442 10.637018,6.1667443 10.912241,6.7462854 l 0.136864,0.2881974 H 12 12.950895 L 13.087759,6.7462854 C 13.445684,5.9925961 14.128065,5.356066 14.9667,4.9935952 c 1.84223,-0.7962399 3.883614,-0.085103 4.685926,1.6323898 0.569604,1.2193404 0.381828,2.801402 -0.499299,4.206713 -0.970487,1.547831 -2.95076,3.635746 -6.438812,6.788806 -0.227466,0.205621 -0.481286,0.437159 -0.564045,0.514529 L 12,18.276706 Z"
       id="path839"
       transform="matrix(40,0,0,40,0,-960)" />
  </g>
</svg>
