<?xml version="1.0" standalone="no"?>
<!DOCTYPE svg PUBLIC "-//W3C//DTD SVG 20010904//EN"
 "http://www.w3.org/TR/2001/REC-SVG-20010904/DTD/svg10.dtd">
<svg version="1.0" xmlns="http://www.w3.org/2000/svg"
 width="512.000000pt" height="512.000000pt" viewBox="0 0 512.000000 512.000000"
 preserveAspectRatio="xMidYMid meet">

<g transform="translate(0.000000,512.000000) scale(0.100000,-0.100000)"
fill="#000000" stroke="none">
<path d="M1400 5044 c-167 -45 -290 -190 -311 -366 -11 -95 -11 -691 0 -786
12 -103 64 -206 135 -269 l54 -47 -45 -45 c-26 -26 -61 -78 -82 -121 l-36 -75
-3 -566 -3 -566 -40 -18 c-45 -21 -80 -58 -110 -117 -15 -29 -21 -67 -26 -151
-11 -210 24 -313 124 -372 l52 -30 3 -565 3 -565 36 -75 c59 -122 155 -202
284 -236 40 -11 259 -14 1125 -14 688 0 1091 4 1119 11 70 16 146 58 200 110
l49 49 168 -82 167 -83 162 -3 c149 -4 165 -2 203 17 28 14 49 35 62 61 20 39
20 55 20 1720 0 1665 0 1681 -20 1720 -13 26 -34 47 -62 61 -38 19 -54 21
-203 17 l-162 -3 -167 -83 -167 -82 -44 43 -43 43 54 47 c76 67 123 166 136
284 5 49 8 248 6 448 -4 344 -5 362 -27 417 -48 122 -135 214 -248 259 l-58
24 -1125 2 c-967 2 -1133 0 -1180 -13z m2320 -160 c59 -27 107 -76 136 -139
24 -50 24 -51 24 -460 0 -409 0 -410 -24 -460 -29 -63 -77 -112 -136 -139 -41
-19 -67 -21 -280 -24 -222 -3 -236 -5 -257 -24 -15 -14 -23 -33 -23 -53 0 -20
8 -39 23 -53 21 -19 34 -21 242 -24 206 -3 223 -5 272 -26 28 -13 59 -32 68
-42 16 -18 12 -21 -94 -74 l-111 -56 -991 0 c-1096 0 -1034 4 -1082 -64 -21
-30 -22 -41 -25 -281 -2 -137 0 -260 3 -272 8 -34 56 -55 94 -42 17 6 36 19
41 29 6 11 10 118 10 249 l0 231 950 0 950 0 0 -1300 0 -1300 -950 0 -950 0 0
470 0 470 239 0 240 0 -34 -55 c-107 -179 -34 -414 158 -501 53 -24 75 -28
147 -28 149 -1 151 1 547 396 396 395 398 398 398 548 0 150 -2 153 -398 548
-396 395 -398 397 -547 396 -72 0 -94 -4 -147 -28 -68 -31 -138 -97 -171 -162
-52 -103 -47 -239 13 -339 l34 -55 -240 0 -239 0 0 86 c0 47 -4 94 -10 104
-16 29 -67 42 -100 25 -36 -19 -40 -31 -40 -131 l0 -84 -100 0 -100 0 0 523
c0 609 -2 597 84 683 88 88 52 84 865 84 l705 0 23 22 c30 29 31 77 0 106
l-23 21 -734 3 c-726 3 -736 3 -780 24 -59 28 -108 77 -136 139 -24 50 -24 51
-23 460 0 308 3 419 13 446 27 75 90 135 175 165 29 11 254 13 1141 11 1097
-2 1105 -2 1150 -23z m840 -3024 l0 -1650 -100 0 -100 0 0 327 c0 322 0 327
-22 350 -28 30 -74 30 -105 1 l-23 -21 0 -304 0 -303 -275 137 -275 138 0
1327 0 1327 273 135 272 134 3 -1151 2 -1151 22 -23 c28 -30 74 -30 105 -1
l23 21 0 1179 0 1178 100 0 100 0 0 -1650z m-2112 771 c20 -11 95 -78 166
-149 l129 -130 -6 -49 c-21 -180 -151 -359 -320 -443 -134 -66 -165 -69 -784
-70 l-543 0 0 106 c0 103 1 106 29 135 l29 29 499 0 c454 0 501 2 532 18 55
27 76 64 76 132 0 51 -4 63 -33 99 -41 52 -62 100 -62 146 0 71 52 153 115
181 45 20 129 17 173 -5z m-986 -1628 c3 -497 3 -498 25 -529 48 -68 -14 -64
1082 -64 l991 0 111 -56 c106 -53 110 -56 94 -74 -9 -10 -40 -29 -68 -42 l-52
-23 -1086 0 -1085 0 -59 30 c-37 19 -72 46 -92 73 -62 82 -63 91 -63 664 l0
518 100 0 99 0 3 -497z"/>
<path d="M1537 4698 c-33 -26 -37 -66 -37 -412 0 -353 4 -397 40 -416 24 -13
336 -13 360 0 43 23 40 116 -5 134 -9 3 -66 6 -126 6 l-109 0 0 100 0 100 100
0 c94 0 103 2 125 25 14 13 25 36 25 50 0 14 -11 37 -25 50 -22 23 -31 25
-125 25 l-100 0 0 100 0 100 109 0 c60 0 117 3 126 6 45 18 48 111 5 134 -28
15 -342 13 -363 -2z"/>
<path d="M2169 4700 c-9 -5 -22 -23 -28 -38 -12 -27 -6 -41 74 -203 l87 -173
-87 -176 -88 -176 17 -32 c18 -34 51 -48 91 -38 20 5 37 31 85 126 33 66 62
120 65 120 3 0 32 -54 65 -120 49 -98 65 -121 86 -126 40 -10 76 7 91 43 12
30 9 38 -73 205 l-86 173 86 173 c82 167 85 174 73 205 -15 36 -51 53 -91 43
-21 -5 -37 -28 -86 -126 -33 -66 -62 -120 -65 -120 -3 0 -32 53 -64 119 -33
65 -67 121 -76 125 -24 9 -57 7 -76 -4z"/>
<path d="M2867 4698 c-33 -26 -37 -66 -37 -414 0 -377 4 -407 54 -420 44 -11
76 4 92 41 18 44 21 702 3 754 -17 48 -73 68 -112 39z"/>
<path d="M3217 4698 c-27 -21 -36 -60 -22 -94 16 -38 30 -44 106 -44 l59 0 0
-325 0 -326 25 -24 c31 -32 69 -32 100 0 l25 24 0 326 0 325 59 0 c75 0 88 5
107 42 13 25 13 35 3 59 -6 17 -20 34 -30 39 -28 15 -412 13 -432 -2z"/>
<path d="M263 2210 c-56 -12 -92 -32 -129 -72 -65 -68 -69 -85 -69 -278 0
-198 7 -223 83 -292 60 -54 97 -63 257 -63 133 1 143 2 193 28 56 29 102 83
124 145 17 50 17 314 0 364 -22 62 -68 116 -124 144 -46 23 -66 27 -172 30
-67 2 -140 -1 -163 -6z m217 -215 c0 -78 -16 -122 -59 -158 -39 -32 -89 -47
-160 -47 l-53 0 4 106 c4 105 4 106 36 135 31 28 36 29 132 29 l100 0 0 -65z"/>
</g>
</svg>
