<?xml version="1.0" encoding="UTF-8" standalone="no"?>
<svg
   xmlns:dc="http://purl.org/dc/elements/1.1/"
   xmlns:cc="http://creativecommons.org/ns#"
   xmlns:rdf="http://www.w3.org/1999/02/22-rdf-syntax-ns#"
   xmlns:svg="http://www.w3.org/2000/svg"
   xmlns="http://www.w3.org/2000/svg"
   xmlns:xlink="http://www.w3.org/1999/xlink"
   xmlns:sodipodi="http://sodipodi.sourceforge.net/DTD/sodipodi-0.dtd"
   xmlns:inkscape="http://www.inkscape.org/namespaces/inkscape"
   fill="none"
   height="24"
   viewBox="0 0 24 24"
   width="24"
   version="1.1"
   id="svg12"
   sodipodi:docname="newpost2.svg"
   inkscape:version="1.0 (4035a4fb49, 2020-05-01)">
  <metadata
     id="metadata18">
    <rdf:RDF>
      <cc:Work
         rdf:about="">
        <dc:format>image/svg+xml</dc:format>
        <dc:type
           rdf:resource="http://purl.org/dc/dcmitype/StillImage" />
        <dc:title />
      </cc:Work>
    </rdf:RDF>
  </metadata>
  <defs
     id="defs16">
    <linearGradient
       inkscape:collect="always"
       id="linearGradient956">
      <stop
         style="stop-color:#004cd4;stop-opacity:1"
         offset="0"
         id="stop952" />
      <stop
         style="stop-color:#00f0b7;stop-opacity:1"
         offset="1"
         id="stop954" />
    </linearGradient>
    <linearGradient
       inkscape:collect="always"
       id="linearGradient948">
      <stop
         style="stop-color:#004cd4;stop-opacity:1"
         offset="0"
         id="stop944" />
      <stop
         style="stop-color:#00f0b7;stop-opacity:1"
         offset="1"
         id="stop946" />
    </linearGradient>
    <linearGradient
       inkscape:collect="always"
       id="linearGradient940">
      <stop
         style="stop-color:#004cd4;stop-opacity:1"
         offset="0"
         id="stop936" />
      <stop
         style="stop-color:#00f0b7;stop-opacity:1"
         offset="1"
         id="stop938" />
    </linearGradient>
    <linearGradient
       inkscape:collect="always"
       xlink:href="#linearGradient940"
       id="linearGradient942"
       x1="16.321627"
       y1="4.6279767"
       x2="23.512831"
       y2="4.6279767"
       gradientUnits="userSpaceOnUse" />
    <linearGradient
       inkscape:collect="always"
       xlink:href="#linearGradient948"
       id="linearGradient950"
       x1="2.3781994"
       y1="13.112133"
       x2="18.363019"
       y2="13.112133"
       gradientUnits="userSpaceOnUse" />
    <linearGradient
       inkscape:collect="always"
       xlink:href="#linearGradient956"
       id="linearGradient958"
       x1="3.085716"
       y1="10.001615"
       x2="5.0166101"
       y2="10.001615"
       gradientUnits="userSpaceOnUse"
       spreadMethod="repeat" />
  </defs>
  <sodipodi:namedview
     inkscape:document-rotation="0"
     pagecolor="#ffffff"
     bordercolor="#666666"
     borderopacity="1"
     objecttolerance="10"
     gridtolerance="10"
     guidetolerance="10"
     inkscape:pageopacity="0"
     inkscape:pageshadow="2"
     inkscape:window-width="1600"
     inkscape:window-height="829"
     id="namedview14"
     showgrid="false"
     inkscape:zoom="11.313709"
     inkscape:cx="-7.8889616"
     inkscape:cy="17.209421"
     inkscape:window-x="-8"
     inkscape:window-y="-8"
     inkscape:window-maximized="1"
     inkscape:current-layer="svg12" />
  <path
     clip-rule="evenodd"
     d="m 3.6162184,6.2093024 c -0.7012555,0 -1.269731,0.5704874 -1.269731,1.2742247 v 8.4948309 c 0,0.703712 0.5684755,1.274225 1.269731,1.274225 h 2.5394622 c 0.233749,0 0.4232437,0.190199 0.4232437,0.424741 v 2.47446 l 3.251612,-2.796923 c 0.076691,-0.066 0.1743767,-0.102279 0.2754467,-0.102279 h 7.054034 c 0.70123,0 1.26973,-0.570513 1.26973,-1.274225 V 7.4835271 c 0,-0.7037373 -0.5685,-1.2742247 -1.26973,-1.2742247 z M 1.5,7.4835271 C 1.5,6.3106373 2.4474649,5.3598193 3.6162184,5.3598193 H 17.160017 c 1.168744,0 2.116219,0.950818 2.116219,2.1237078 v 8.4948309 c 0,1.172881 -0.947475,2.123708 -2.116219,2.123708 H 10.262499 L 6.4311276,21.397721 C 6.3056274,21.505691 6.1289909,21.53041 5.978824,21.461178 5.8286572,21.391859 5.732437,21.241161 5.732437,21.075257 V 18.102066 H 3.6162184 C 2.4474649,18.102066 1.5,17.151239 1.5,15.978358 Z"
     fill="#000000"
     fill-rule="evenodd"
     id="path2"
     style="fill:none;stroke-width:1.13385827;paint-order:stroke fill markers;fill-rule:evenodd;opacity:0.998" />
  <path
     clip-rule="evenodd"
     d="m 4.0394621,8.3330102 c 0,-0.2345762 0.1894947,-0.4247415 0.4232437,-0.4247415 h 5.9254122 c 0.233715,0 0.423243,0.1901653 0.423243,0.4247415 v 6.7958658 c 0,0.234542 -0.189528,0.424741 -0.423243,0.424741 H 4.4627058 c -0.233749,0 -0.4232437,-0.190199 -0.4232437,-0.424741 z M 4.8859496,8.7577518 V 14.704133 H 9.9648739 V 8.7577518 Z"
     fill="#000000"
     fill-rule="evenodd"
     id="path4"
     style="fill:none;stroke-width:1.13385827;paint-order:stroke fill markers;fill-rule:evenodd;opacity:0.998" />
  <path
     clip-rule="evenodd"
     d="M 16.736773,8.7577518 H 12.504336 V 7.9082687 h 4.232437 z"
     fill="#000000"
     fill-rule="evenodd"
     id="path6"
     style="fill:none;stroke-width:1.13385827;paint-order:stroke fill markers;fill-rule:evenodd;opacity:0.998" />
  <path
     clip-rule="evenodd"
     d="M 16.92783,14.914508 H 12.695393 V 14.065024 H 16.92783 Z"
     fill="#000000"
     fill-rule="evenodd"
     id="path8"
     style="fill:none;stroke-width:1.13385827;paint-order:stroke fill markers;fill-rule:evenodd;opacity:0.998" />
  <path
     clip-rule="evenodd"
     d="m 16.736773,12.155685 h -4.232437 v -0.849484 h 4.232437 z"
     fill="#000000"
     fill-rule="evenodd"
     id="path10"
     style="fill:none;stroke-width:1.13385827;paint-order:stroke fill markers;fill-rule:evenodd;opacity:0.998" />
  <path
     style="fill:url(#linearGradient942);fill-opacity:1.0;stroke-width:0.999999"
     clip-rule="evenodd"
     d="m 18.282864,0.93595951 c -1.083161,0 -1.961237,0.90162079 -1.961237,2.01382809 v 3.3563789 c 0,1.1122037 0.878076,2.0138274 1.961237,2.0138274 h 3.268729 c 1.083158,0 1.961238,-0.9016237 1.961238,-2.0138274 V 2.9497876 c 0,-1.1122073 -0.87808,-2.01382809 -1.961238,-2.01382809 z M 19.590357,4.2923393 V 2.6141492 h 0.653745 v 1.6781901 h 1.634364 V 4.9636151 H 20.244102 V 6.641804 H 19.590357 V 4.9636151 H 17.95599 V 4.2923393 Z"
     fill="#000000"
     fill-rule="evenodd"
     id="path2-1" />
  <path
     style="fill:url(#linearGradient950);fill-rule:evenodd;stroke-width:1.13386;paint-order:stroke fill markers;fill-opacity:1.0"
     d="m 6.6493067,18.791204 c 0,-1.679503 0.1445438,-1.556603 -1.8639158,-1.584804 L 3.204118,17.184196 2.9150425,16.967494 C 2.3552837,16.547879 2.3614138,16.610413 2.3868951,11.579712 2.4092745,7.1614152 2.4125175,7.081595 2.5785952,6.8615588 2.6715097,6.7384563 2.8676679,6.5574482 3.0145022,6.4593186 L 3.2814736,6.280901 h 6.4759995 6.4759989 l 0.09709,0.4259984 c 0.201038,0.8821109 0.868846,1.5280201 1.6717,1.6168788 l 0.360757,0.039928 -0.02229,4.0680788 -0.02229,4.068077 -0.242266,0.252813 c -0.45586,0.475707 -0.412838,0.471169 -4.468635,0.471169 H 9.9008816 l -1.4844658,1.278979 c -0.8164563,0.703438 -1.5480606,1.33343 -1.6257874,1.399982 -0.1338161,0.114577 -0.1413217,0.05554 -0.1413217,-1.111601 z m 4.1156733,-3.38597 c 0.05405,-0.09917 0.08359,-1.407141 0.08359,-3.700876 0,-3.1897045 -0.01348,-3.5621227 -0.133649,-3.6925101 -0.12515,-0.1357988 -0.335242,-0.145013 -3.3063769,-0.145013 H 4.2358095 L 4.1100976,8.0430721 c -0.1092017,0.1530916 -0.125712,0.6391422 -0.125712,3.7008769 0,3.168435 0.013506,3.539293 0.1336489,3.669652 0.1252132,0.13586 0.3365629,0.145013 3.3484989,0.145013 3.0957786,0 3.2179456,-0.0057 3.2984466,-0.15338 z m 6.22099,-0.917125 v -0.436132 h -2.180389 -2.18039 v 0.436132 0.436131 h 2.18039 2.180389 z m -0.242265,-2.735736 v -0.47578 H 14.603693 12.46368 v 0.47578 0.475779 h 2.140013 2.140012 z m 0,-3.409758 V 7.8668349 H 14.603693 12.46368 V 8.342615 8.8183952 h 2.140013 2.140012 z"
     id="path849" />
  <path
     style="opacity:0.998;fill:url(#linearGradient958);fill-opacity:1.0;fill-rule:evenodd;stroke-width:1.13386;paint-order:stroke fill markers"
     d="m 5.0166102,12.385135 c -3.3444068,-8.2567567 -1.6722034,-4.1283783 0,0 z"
     id="path847"
     sodipodi:nodetypes="cc" />
  <path
     style="fill:none;stroke-width:1.13385827;paint-order:stroke fill markers;fill-rule:evenodd;opacity:0.998"
     d="M 2.5932585,17.80519 C 2.362696,17.674298 2.1062936,17.439932 1.9250076,17.19437 L 1.7977634,17.022011 V 11.731972 6.4419331 l 0.1256167,-0.172359 c 0.172994,-0.2373654 0.4929813,-0.5236054 0.7079185,-0.6332582 0.098675,-0.05034 0.1901455,-0.091528 0.2032672,-0.091528 0.013122,0 0.023858,0.195153 0.023858,0.4336734 0,0.4273263 -0.002,0.4355731 -0.1367035,0.5634757 C 2.6465333,6.613328 2.532181,6.7711762 2.4676038,6.8927102 l -0.117413,0.2209709 v 4.6182909 4.618291 l 0.1013511,0.189817 c 0.055743,0.104399 0.1700954,0.265908 0.2541165,0.35891 0.15194,0.168179 0.1527654,0.171392 0.1527654,0.59463 0,0.234045 -0.014915,0.425297 -0.033146,0.425004 -0.01823,-3.09e-4 -0.1226388,-0.05134 -0.2320193,-0.113434 z"
     id="path962" />
  <path
     style="fill:none;stroke-width:1.13385827;paint-order:stroke fill markers;fill-rule:evenodd;opacity:0.998"
     d="M 1.6651808,16.725914 1.5546954,16.438652 V 11.709875 6.9810986 l 0.1104854,-0.265165 0.1104855,-0.2651651 0.011396,2.6406019 c 0.00627,1.4523306 0.00627,3.8288726 0,5.2812036 l -0.011396,2.640602 z"
     id="path964" />
  <path
     style="fill:none;stroke-width:1.13385827;paint-order:stroke fill markers;fill-rule:evenodd;opacity:0.998"
     d="m 3.9190837,17.676089 v -0.419845 h 0.508233 0.508233 v 0.419845 0.419844 h -0.508233 -0.508233 z"
     id="path966" />
  <path
     style="fill:none;stroke-width:1.13385827;paint-order:stroke fill markers;fill-rule:evenodd;opacity:0.998"
     d="m 13.818579,8.3290209 c 0,-0.3948013 8.18e-4,-0.3977475 0.110485,-0.3977475 0.109667,0 0.110485,0.00295 0.110485,0.3977475 0,0.3948013 -8.18e-4,0.3977476 -0.110485,0.3977476 -0.109667,0 -0.110485,-0.00295 -0.110485,-0.3977476 z"
     id="path970" />
  <path
     style="fill:none;stroke-width:1.13385827;paint-order:stroke fill markers;fill-rule:evenodd;opacity:0.998"
     d="M 12.713724,8.3290209 V 7.9312734 h 0.132583 0.132582 v 0.3977475 0.3977476 h -0.132582 -0.132583 z"
     id="path972" />
  <path
     style="fill:none;stroke-width:1.13385827;paint-order:stroke fill markers;fill-rule:evenodd;opacity:0.998"
     d="m 13.244054,8.3290209 c 0,-0.3948013 8.19e-4,-0.3977475 0.110486,-0.3977475 0.109667,0 0.110485,0.00295 0.110485,0.3977475 0,0.3948013 -8.18e-4,0.3977476 -0.110485,0.3977476 -0.109667,0 -0.110486,-0.00295 -0.110486,-0.3977476 z"
     id="path974" />
  <path
     style="fill:none;stroke-width:1.13385827;paint-order:stroke fill markers;fill-rule:evenodd;opacity:0.998"
     d="m 15.011821,8.3290209 c 0,-0.3948013 8.19e-4,-0.3977475 0.110486,-0.3977475 0.109667,0 0.110485,0.00295 0.110485,0.3977475 0,0.3948013 -8.18e-4,0.3977476 -0.110485,0.3977476 -0.109667,0 -0.110486,-0.00295 -0.110486,-0.3977476 z"
     id="path976" />
  <path
     style="fill:none;stroke-width:1.13385827;paint-order:stroke fill markers;fill-rule:evenodd;opacity:0.998"
     d="m 16.205064,8.3290209 c 0,-0.3948013 8.18e-4,-0.3977475 0.110485,-0.3977475 0.109667,0 0.110486,0.00295 0.110486,0.3977475 0,0.3948013 -8.19e-4,0.3977476 -0.110486,0.3977476 -0.109667,0 -0.110485,-0.00295 -0.110485,-0.3977476 z"
     id="path978" />
  <path
     style="fill:none;stroke-width:1.13385827;paint-order:stroke fill markers;fill-rule:evenodd;opacity:0.998"
     d="m 16.269844,8.6801294 c -0.05031,-0.081397 -0.04047,-0.6582613 0.01212,-0.7108523 0.07616,-0.076162 0.107675,0.031177 0.107675,0.3667725 0,0.3073297 -0.05135,0.4548239 -0.119796,0.3440798 z"
     id="path980" />
  <path
     style="fill:none;stroke-width:1.13385827;paint-order:stroke fill markers;fill-rule:evenodd;opacity:0.998"
     d="m 15.939899,8.3290209 c 0,-0.3948013 8.18e-4,-0.3977475 0.110485,-0.3977475 0.109667,0 0.110486,0.00295 0.110486,0.3977475 0,0.3948013 -8.19e-4,0.3977476 -0.110486,0.3977476 -0.109667,0 -0.110485,-0.00295 -0.110485,-0.3977476 z"
     id="path982" />
  <path
     style="fill:none;stroke-width:1.13385827;paint-order:stroke fill markers;fill-rule:evenodd;opacity:0.998"
     d="M 15.63054,8.3290209 V 7.9312734 h 0.132582 0.132583 V 8.3290209 8.7267685 H 15.763122 15.63054 Z"
     id="path984" />
  <path
     style="opacity:0.998;fill:#2b0000;fill-opacity:1;fill-rule:evenodd;stroke-width:1.13386;paint-order:stroke fill markers"
     d=""
     id="path986" />
  <path
     style="fill:none;stroke-width:1.13385827;paint-order:stroke fill markers;fill-rule:evenodd;opacity:0.998"
     d="m 14.039549,8.3290209 c 0,-0.3240906 0.01228,-0.3977475 0.06629,-0.3977475 0.05401,0 0.06629,0.073657 0.06629,0.3977475 0,0.3240906 -0.01228,0.3977476 -0.06629,0.3977476 -0.05401,0 -0.06629,-0.073657 -0.06629,-0.3977476 z"
     id="path988" />
  <path
     style="fill:none;stroke-width:1.13385827;paint-order:stroke fill markers;fill-rule:evenodd;opacity:0.998"
     d="m 14.26052,8.3290209 c 0,-0.3948013 8.19e-4,-0.3977475 0.110486,-0.3977475 0.109667,0 0.110485,0.00295 0.110485,0.3977475 0,0.3948013 -8.18e-4,0.3977476 -0.110485,0.3977476 -0.109667,0 -0.110486,-0.00295 -0.110486,-0.3977476 z"
     id="path990" />
  <path
     style="fill:none;stroke-width:1.13385827;paint-order:stroke fill markers;fill-rule:evenodd;opacity:0.998"
     d="m 14.835045,8.3290209 c 0,-0.3682847 0.0065,-0.3977475 0.08839,-0.3977475 0.08184,0 0.08839,0.029463 0.08839,0.3977475 0,0.3682848 -0.0065,0.3977476 -0.08839,0.3977476 -0.08184,0 -0.08839,-0.029463 -0.08839,-0.3977476 z"
     id="path992" />
  <path
     style="fill:none;stroke-width:1.13385827;paint-order:stroke fill markers;fill-rule:evenodd;opacity:0.998"
     d="m 15.086215,8.6980423 c -0.01661,-0.01661 -0.0302,-0.085373 -0.0302,-0.152808 0,-0.067435 -0.01989,-0.1348997 -0.04419,-0.1499221 -0.0263,-0.016255 -0.04419,0.03637 -0.04419,0.1299743 0,0.2134211 -0.07107,0.1996339 -0.100461,-0.019489 -0.02852,-0.212631 0.0087,-0.5303301 0.06209,-0.5303301 0.02111,0 0.03838,0.073583 0.03838,0.1635185 0,0.1909958 0.07389,0.1501934 0.09604,-0.053033 0.01881,-0.172573 0.09529,-0.1541195 0.130166,0.031406 l 0.02733,0.1453702 0.0058,-0.1657282 c 0.004,-0.1152654 0.026,-0.1657281 0.07211,-0.1657281 0.05402,0 0.06629,0.073657 0.06629,0.3977475 0,0.3240906 -0.01228,0.3977476 -0.06629,0.3977476 -0.04596,0 -0.06832,-0.05082 -0.07291,-0.1657282 -0.006,-0.1494956 -0.0085,-0.1527421 -0.0255,-0.033146 -0.02085,0.1464446 -0.06803,0.2165776 -0.114458,0.1701476 z"
     id="path994" />
  <path
     style="fill:none;stroke-width:1.13385827;paint-order:stroke fill markers;fill-rule:evenodd;opacity:0.998"
     d="M 15.63054,8.3290209 V 7.9312734 h 0.132582 0.132583 V 8.3290209 8.7267685 H 15.763122 15.63054 Z"
     id="path996" />
  <path
     style="fill:none;stroke-width:1.13385827;paint-order:stroke fill markers;fill-rule:evenodd;opacity:0.998"
     d="m 15.365375,8.3290209 c 0,-0.3682847 0.0065,-0.3977475 0.08839,-0.3977475 0.08184,0 0.08839,0.029463 0.08839,0.3977475 0,0.3682848 -0.0065,0.3977476 -0.08839,0.3977476 -0.08184,0 -0.08839,-0.029463 -0.08839,-0.3977476 z"
     id="path998" />
  <path
     style="fill:none;stroke-width:1.13385827;paint-order:stroke fill markers;fill-rule:evenodd;opacity:0.998"
     d="m 14.702462,8.3290209 c 0,-0.3240906 0.01228,-0.3977475 0.06629,-0.3977475 0.0414,0 0.06855,0.045641 0.07231,0.1215339 0.0052,0.104203 0.0087,0.1073541 0.02517,0.022097 0.0288,-0.1495398 0.101393,-0.1194818 0.101393,0.041984 0,0.1565352 0.07118,0.124006 0.09569,-0.043735 0.02163,-0.1479508 0.09788,-0.1404808 0.130662,0.012799 0.02096,0.09801 0.02971,0.1073331 0.03358,0.035754 0.0092,-0.169775 0.09362,-0.1621612 0.09362,0.00844 0,0.095344 0.01784,0.1488692 0.04419,0.1325826 0.02431,-0.015022 0.04419,-0.085802 0.04419,-0.1572878 0,-0.071486 0.0178,-0.1299744 0.03955,-0.1299744 0.0484,0 0.07929,0.2904177 0.05641,0.5303301 -0.01942,0.2036609 -0.09596,0.2409908 -0.09596,0.046802 0,-0.1946281 -0.08028,-0.2062539 -0.100692,-0.014582 -0.01659,0.1557406 -0.02022,0.1594186 -0.05547,0.056168 l -0.03772,-0.1104855 -0.02459,0.1020451 c -0.03154,0.1308842 -0.108591,0.1303671 -0.127772,-8.578e-4 -0.02452,-0.1677409 -0.09569,-0.2002701 -0.09569,-0.043735 0,0.1614663 -0.07259,0.1915243 -0.101393,0.041984 -0.01642,-0.085257 -0.02001,-0.082106 -0.02517,0.022097 -0.0038,0.075893 -0.03091,0.121534 -0.07231,0.121534 -0.05401,0 -0.06629,-0.073657 -0.06629,-0.3977476 z"
     id="path1000" />
  <path
     style="fill:none;stroke-width:1.13385827;paint-order:stroke fill markers;fill-rule:evenodd;opacity:0.998"
     d="M 13.553414,8.3290209 V 7.9312734 h 0.12743 c 0.153715,0 0.173768,0.068082 0.146438,0.4971844 -0.01878,0.2949225 -0.02045,0.2983107 -0.146434,0.2983107 h -0.127434 z"
     id="path1002" />
  <path
     style="fill:none;stroke-width:1.13385827;paint-order:stroke fill markers;fill-rule:evenodd;opacity:0.998"
     d="m 12.978889,8.3290209 c 0,-0.3240906 0.01228,-0.3977475 0.06629,-0.3977475 0.05401,0 0.06629,0.073657 0.06629,0.3977475 0,0.3240906 -0.01228,0.3977476 -0.06629,0.3977476 -0.05402,0 -0.06629,-0.073657 -0.06629,-0.3977476 z"
     id="path1004" />
  <path
     style="fill:none;stroke-width:1.13385827;paint-order:stroke fill markers;fill-rule:evenodd;opacity:0.998"
     d="m 12.982378,8.2148527 c 0.0021,-0.051484 0.01259,-0.061956 0.0267,-0.026701 0.01277,0.031903 0.0112,0.07002 -0.0035,0.084706 -0.01469,0.014685 -0.02513,-0.011417 -0.02321,-0.058005 z"
     id="path1006" />
  <path
     style="fill:none;stroke-width:1.13385827;paint-order:stroke fill markers;fill-rule:evenodd;opacity:0.998"
     d="M 12.713724,8.3290209 V 7.9312734 h 0.132583 c 0.119045,0 0.133116,0.014666 0.137811,0.143631 l 0.0052,0.1436311 0.03083,-0.1325825 c 0.02972,-0.1278064 0.03157,-0.1258164 0.05118,0.055243 0.01119,0.1033039 0.01093,0.2723466 -5.74e-4,0.3756505 l -0.02092,0.1878252 -0.02967,-0.1546796 -0.02967,-0.1546796 -0.0058,0.1657281 c -0.0054,0.1533868 -0.01569,0.1657282 -0.1384,0.1657282 h -0.132583 z"
     id="path1008" />
  <path
     style="fill:none;stroke-width:1.13385827;paint-order:stroke fill markers;fill-rule:evenodd;opacity:0.998"
     d="M 12.713724,8.3290209 V 7.9312734 h 0.132583 c 0.114105,0 0.133196,0.016938 0.136988,0.1215339 l 0.0044,0.121534 0.03245,-0.1104854 c 0.02829,-0.096313 0.03496,-0.086392 0.052,0.07734 0.01075,0.1033039 0.0104,0.2723466 -7.92e-4,0.3756505 -0.01961,0.1810591 -0.02146,0.1830491 -0.05118,0.055243 l -0.03084,-0.1325825 -0.0052,0.143631 c -0.0047,0.1289653 -0.01877,0.1436311 -0.137811,0.1436311 h -0.132583 z"
     id="path1010" />
  <path
     style="fill:none;stroke-width:1.13385827;paint-order:stroke fill markers;fill-rule:evenodd;opacity:0.998"
     d="m 12.536948,8.3290209 c 0,-0.3240906 0.01228,-0.3977475 0.06629,-0.3977475 0.05401,0 0.06629,0.073657 0.06629,0.3977475 0,0.3240906 -0.01228,0.3977476 -0.06629,0.3977476 -0.05401,0 -0.06629,-0.073657 -0.06629,-0.3977476 z"
     id="path1012" />
  <path
     style="fill:none;stroke-width:1.13385827;paint-order:stroke fill markers;fill-rule:evenodd;opacity:0.998"
     d="m 13.465025,8.3290209 c 0,-0.2357022 0.018,-0.3977475 0.04419,-0.3977475 0.02619,0 0.0442,0.1620453 0.0442,0.3977475 0,0.2357023 -0.01801,0.3977476 -0.0442,0.3977476 -0.02619,0 -0.04419,-0.1620453 -0.04419,-0.3977476 z"
     id="path1014" />
  <path
     style="fill:none;stroke-width:1.13385827;paint-order:stroke fill markers;fill-rule:evenodd;opacity:0.998"
     d="m 13.3069,8.6769995 c -0.04115,-0.066578 -0.04115,-0.629379 0,-0.6959572 0.05401,-0.087393 0.113931,-0.0076 0.113931,0.1517131 0,0.1057118 0.02021,0.1520714 0.06629,0.1520714 0.04788,0 0.06629,-0.049105 0.06629,-0.1767767 0,-0.097227 0.02119,-0.1767767 0.0471,-0.1767767 0.0941,0 0.21817,0.093293 0.222471,0.167283 0.0029,0.050566 0.01397,0.041828 0.03315,-0.02626 0.04518,-0.160419 0.115784,-0.1351645 0.130845,0.046802 0.0075,0.091151 0.0324,0.1657282 0.05524,0.1657282 0.02284,0 0.04402,-0.074578 0.04706,-0.1657282 l 0.0055,-0.1657281 0.03059,0.1878252 c 0.01682,0.1033039 0.01682,0.2723466 0,0.3756505 l -0.03059,0.1878252 -0.0055,-0.1657281 c -0.007,-0.2096976 -0.08404,-0.2173223 -0.1023,-0.010125 -0.01712,0.1941988 -0.09289,0.2201798 -0.126198,0.043271 l -0.02496,-0.1325825 -0.03667,0.1104854 c -0.07969,0.2400777 -0.245729,0.2400777 -0.245729,0 0,-0.1276721 -0.01842,-0.1767767 -0.06629,-0.1767767 -0.04608,0 -0.06629,0.04636 -0.06629,0.1520714 0,0.1593158 -0.05992,0.2391057 -0.113931,0.151713 z"
     id="path1016" />
  <path
     style="fill:none;stroke-width:1.13385827;paint-order:stroke fill markers;fill-rule:evenodd;opacity:0.998"
     d="m 13.111472,8.3290209 c 0,-0.3240906 0.01228,-0.3977475 0.06629,-0.3977475 0.05401,0 0.06629,0.073657 0.06629,0.3977475 0,0.3240906 -0.01228,0.3977476 -0.06629,0.3977476 -0.05401,0 -0.06629,-0.073657 -0.06629,-0.3977476 z"
     id="path1018" />
  <path
     style="fill:none;stroke-width:1.13385827;paint-order:stroke fill markers;fill-rule:evenodd;opacity:0.998"
     d="m 14.325301,8.6801294 c -0.05031,-0.081397 -0.04047,-0.6582613 0.01212,-0.7108523 0.07616,-0.076162 0.107675,0.031177 0.107675,0.3667725 0,0.3073297 -0.05135,0.4548239 -0.119795,0.3440798 z"
     id="path1020" />
  <path
     style="fill:none;stroke-width:1.13385827;paint-order:stroke fill markers;fill-rule:evenodd;opacity:0.998"
     d="m 15.0778,8.6632783 c -0.06541,-0.2074527 -0.08262,-0.2251468 -0.09942,-0.102238 -0.01821,0.133152 -0.09832,0.1683885 -0.100481,0.044194 -0.0012,-0.06777 -0.0079,-0.066403 -0.05414,0.011049 -0.0477,0.079862 -0.05532,0.07027 -0.07897,-0.099437 -0.01439,-0.1033039 -0.01439,-0.2723466 0,-0.3756505 0.02365,-0.1697071 0.03126,-0.1792991 0.07897,-0.099437 0.04626,0.077451 0.05296,0.078818 0.05414,0.011048 7.39e-4,-0.042537 0.02123,-0.07734 0.04554,-0.07734 0.02431,0 0.04419,0.050892 0.04419,0.1130937 0,0.064142 0.01913,0.1012712 0.04419,0.08578 0.02431,-0.015022 0.04419,-0.064741 0.04419,-0.1104854 0,-0.1214338 0.09014,-0.157533 0.118884,-0.047611 0.02314,0.088487 0.02795,0.089375 0.08401,0.015495 0.05367,-0.070736 0.0596,-0.064126 0.06087,0.06787 8.26e-4,0.08595 0.01962,0.1349789 0.0456,0.1189258 0.02431,-0.015022 0.04419,-0.075858 0.04419,-0.1351907 0,-0.1746202 0.07467,-0.1234113 0.100461,0.068899 0.02852,0.2126311 -0.0087,0.5303301 -0.06209,0.5303301 -0.02111,0 -0.03838,-0.059662 -0.03838,-0.1325825 0,-0.07292 -0.01989,-0.1325825 -0.04419,-0.1325825 -0.02431,0 -0.04483,0.064634 -0.0456,0.143631 -0.0013,0.1358616 -0.0049,0.1389906 -0.06629,0.057844 -0.05443,-0.071966 -0.06489,-0.074166 -0.06489,-0.013657 0,0.099066 -0.08399,0.1430715 -0.110798,0.05805 z"
     id="path1022" />
  <path
     style="fill:none;stroke-width:1.13385827;paint-order:stroke fill markers;fill-rule:evenodd;opacity:0.998"
     d="m 14.481491,8.3290209 c 0,-0.3682847 0.0065,-0.3977475 0.08839,-0.3977475 0.08184,0 0.08839,0.029463 0.08839,0.3977475 0,0.3682848 -0.0065,0.3977476 -0.08839,0.3977476 -0.08184,0 -0.08839,-0.029463 -0.08839,-0.3977476 z"
     id="path1024" />
  <path
     style="fill:none;stroke-width:1.13385827;paint-order:stroke fill markers;fill-rule:evenodd;opacity:0.998"
     d="M 12.713724,8.3290209 V 7.9312734 h 0.132583 c 0.10711,0 0.133179,0.019105 0.135689,0.099437 0.003,0.09488 0.0048,0.095387 0.04109,0.011048 0.03047,-0.070904 0.0386,-0.055605 0.04109,0.07734 0.0017,0.091151 0.02299,0.1657282 0.0473,0.1657282 0.02431,0 0.04702,-0.074578 0.05047,-0.1657282 l 0.0063,-0.1657281 0.0297,0.1767766 0.0297,0.1767767 0.03402,-0.1325825 c 0.06089,-0.2373143 0.07232,-0.259294 0.113069,-0.2173123 0.02164,0.022295 0.04585,0.095844 0.05379,0.1634436 0.02052,0.1745821 0.100228,0.1516076 0.116554,-0.033596 0.01561,-0.1771037 0.09449,-0.2020716 0.225266,-0.0713 0.08294,0.08294 0.08468,0.082869 0.10751,-0.00445 0.03309,-0.126547 0.117546,-0.055038 0.117546,0.099529 0,0.1780073 0.08703,0.165353 0.09392,-0.013657 0.005,-0.1289417 0.0087,-0.1244219 0.03612,0.044194 0.01682,0.1033039 0.01682,0.2723466 0,0.3756505 -0.02746,0.1686161 -0.03115,0.1731359 -0.03612,0.044194 -0.003,-0.078997 -0.02416,-0.143631 -0.04692,-0.143631 -0.02277,0 -0.04763,0.064634 -0.05524,0.143631 -0.01738,0.1802595 -0.09322,0.1868927 -0.12633,0.011049 l -0.02496,-0.1325825 -0.03667,0.1104854 c -0.07464,0.2248639 -0.234977,0.2382244 -0.25411,0.021174 -0.01702,-0.1930187 -0.097,-0.2227127 -0.116554,-0.043271 -0.0079,0.07292 -0.03215,0.1508236 -0.05379,0.1731182 -0.04075,0.041982 -0.05218,0.020002 -0.113069,-0.2173124 l -0.03402,-0.1325825 -0.0297,0.1767767 -0.0297,0.1767767 -0.0063,-0.1657281 c -0.0034,-0.09115 -0.02616,-0.1657282 -0.05047,-0.1657282 -0.02431,0 -0.04618,0.074578 -0.0486,0.1657282 -0.0039,0.1479056 -0.0082,0.1538464 -0.03979,0.055243 l -0.03538,-0.1104855 -0.0044,0.121534 c -0.0038,0.104596 -0.02288,0.121534 -0.136988,0.121534 h -0.132583 z"
     id="path1026" />
  <path
     style="fill:none;stroke-width:1.13385827;paint-order:stroke fill markers;fill-rule:evenodd;opacity:0.998"
     d="m 14.320758,8.6727797 c -0.04253,-0.06882 -0.04039,-0.6221651 0.0027,-0.6918536 0.05428,-0.087821 0.113859,-0.007 0.113859,0.1544375 0,0.091866 0.01795,0.1435879 0.04419,0.1273661 0.02431,-0.015022 0.04419,-0.085802 0.04419,-0.1572878 0,-0.071486 0.0178,-0.1299744 0.03955,-0.1299744 0.0484,0 0.07929,0.2904177 0.05641,0.5303301 -0.01942,0.2036609 -0.09596,0.2409908 -0.09596,0.046802 0,-0.071486 -0.01989,-0.1422654 -0.04419,-0.1572878 -0.02625,-0.016222 -0.04419,0.0355 -0.04419,0.1273661 0,0.1646823 -0.05987,0.2417941 -0.116539,0.1501014 z"
     id="path1028" />
  <path
     style="fill:none;stroke-width:1.13385827;paint-order:stroke fill markers;fill-rule:evenodd;opacity:0.998"
     d="m 15.048043,8.6078939 c -0.04964,-0.1185645 -0.05278,-0.1196866 -0.06928,-0.024757 -0.02035,0.1170691 -0.09892,0.1342819 -0.100866,0.022097 -0.0012,-0.06777 -0.0079,-0.066403 -0.05414,0.011049 -0.0477,0.079862 -0.05532,0.07027 -0.07897,-0.099437 -0.01439,-0.1033039 -0.01439,-0.2723466 0,-0.3756505 0.02365,-0.1697071 0.03126,-0.1792991 0.07897,-0.099437 0.04626,0.077451 0.05296,0.078818 0.05414,0.011048 7.39e-4,-0.042537 0.02123,-0.07734 0.04554,-0.07734 0.02431,0 0.04419,0.039775 0.04419,0.088388 0,0.048614 0.01989,0.088388 0.04419,0.088388 0.02431,0 0.04419,-0.038601 0.04419,-0.08578 0,-0.1234413 0.08981,-0.1613812 0.118884,-0.050219 0.02314,0.088487 0.02795,0.089375 0.08401,0.015495 0.05444,-0.071752 0.05958,-0.068108 0.06087,0.043165 7.73e-4,0.066844 0.02129,0.121534 0.0456,0.121534 0.02431,0 0.04419,-0.049718 0.04419,-0.1104854 0,-0.176655 0.07447,-0.1275172 0.100461,0.066291 0.02852,0.2126311 -0.0087,0.5303301 -0.06209,0.5303301 -0.02111,0 -0.03838,-0.049718 -0.03838,-0.1104854 0,-0.060767 -0.01989,-0.1104854 -0.04419,-0.1104854 -0.02431,0 -0.04483,0.05469 -0.0456,0.1215339 -0.0013,0.1164102 -0.0041,0.1179173 -0.06629,0.035747 -0.05443,-0.071966 -0.06489,-0.074166 -0.06489,-0.013657 0,0.1285655 -0.08715,0.1302184 -0.140555,0.00267 z"
     id="path1030" />
  <path
     style="fill:none;stroke-width:1.13385827;paint-order:stroke fill markers;fill-rule:evenodd;opacity:0.998"
     d="m 16.426035,8.3290209 c 0,-0.3682847 0.0065,-0.3977475 0.08839,-0.3977475 0.08184,0 0.08839,0.029463 0.08839,0.3977475 0,0.3682848 -0.0065,0.3977476 -0.08839,0.3977476 -0.08184,0 -0.08839,-0.029463 -0.08839,-0.3977476 z"
     id="path1032" />
  <path
     style="opacity:0.998;fill:#2b0000;fill-opacity:1;fill-rule:evenodd;stroke-width:1.13386;paint-order:stroke fill markers"
     d=""
     id="path1034" />
  <path
     style="fill:none;stroke-width:1.13385827;paint-order:stroke fill markers;fill-rule:evenodd;opacity:0.998"
     d="m 13.288249,11.731972 c 0,-0.394801 8.18e-4,-0.397747 0.110485,-0.397747 0.109667,0 0.110485,0.0029 0.110485,0.397747 0,0.394802 -8.18e-4,0.397748 -0.110485,0.397748 -0.109667,0 -0.110485,-0.0029 -0.110485,-0.397748 z"
     id="path1036" />
  <path
     style="fill:none;stroke-width:1.13385827;paint-order:stroke fill markers;fill-rule:evenodd;opacity:0.998"
     d="m 12.802113,11.731972 c 0,-0.394801 8.18e-4,-0.397747 0.110485,-0.397747 0.109667,0 0.110485,0.0029 0.110485,0.397747 0,0.394802 -8.18e-4,0.397748 -0.110485,0.397748 -0.109667,0 -0.110485,-0.0029 -0.110485,-0.397748 z"
     id="path1038" />
  <path
     style="fill:none;stroke-width:1.13385827;paint-order:stroke fill markers;fill-rule:evenodd;opacity:0.998"
     d="m 12.581142,11.731972 c 0,-0.394801 8.18e-4,-0.397747 0.110485,-0.397747 0.109667,0 0.110486,0.0029 0.110486,0.397747 0,0.394802 -8.19e-4,0.397748 -0.110486,0.397748 -0.109667,0 -0.110485,-0.0029 -0.110485,-0.397748 z"
     id="path1040" />
  <path
     style="fill:none;stroke-width:1.13385827;paint-order:stroke fill markers;fill-rule:evenodd;opacity:0.998"
     d="m 13.862773,11.731972 c 0,-0.394801 8.18e-4,-0.397747 0.110485,-0.397747 0.109667,0 0.110486,0.0029 0.110486,0.397747 0,0.394802 -8.19e-4,0.397748 -0.110486,0.397748 -0.109667,0 -0.110485,-0.0029 -0.110485,-0.397748 z"
     id="path1042" />
  <path
     style="fill:none;stroke-width:1.13385827;paint-order:stroke fill markers;fill-rule:evenodd;opacity:0.998"
     d="m 15.276986,11.731972 c 0,-0.394801 8.19e-4,-0.397747 0.110486,-0.397747 0.109667,0 0.110485,0.0029 0.110485,0.397747 0,0.394802 -8.18e-4,0.397748 -0.110485,0.397748 -0.109667,0 -0.110486,-0.0029 -0.110486,-0.397748 z"
     id="path1044" />
  <path
     style="fill:none;stroke-width:1.13385827;paint-order:stroke fill markers;fill-rule:evenodd;opacity:0.998"
     d="m 15.895705,11.731972 c 0,-0.394801 8.18e-4,-0.397747 0.110485,-0.397747 0.109667,0 0.110486,0.0029 0.110486,0.397747 0,0.394802 -8.19e-4,0.397748 -0.110486,0.397748 -0.109667,0 -0.110485,-0.0029 -0.110485,-0.397748 z"
     id="path1046" />
  <path
     style="fill:none;stroke-width:1.13385827;paint-order:stroke fill markers;fill-rule:evenodd;opacity:0.998"
     d="m 15.365375,14.494108 c 0,-0.418371 3.87e-4,-0.419844 0.110485,-0.419844 0.110098,0 0.110486,0.0015 0.110486,0.419844 0,0.418372 -3.88e-4,0.419845 -0.110486,0.419845 -0.110098,0 -0.110485,-0.0015 -0.110485,-0.419845 z"
     id="path1048" />
  <path
     style="fill:none;stroke-width:1.13385827;paint-order:stroke fill markers;fill-rule:evenodd;opacity:0.998"
     d="M 19.612957,5.8005156 V 4.9608263 H 18.795364 17.977772 V 4.62937 4.2979137 h 0.817592 0.817593 V 3.4582244 2.6185351 h 0.309359 0.309359 v 0.8396893 0.8396893 h 0.817592 0.817592 V 4.62937 4.9608263 h -0.817592 -0.817592 v 0.8396893 0.8396893 h -0.309359 -0.309359 z"
     id="path1050" />
  <path
     id="path893"
     d="m 19.641203,5.7958014 v -0.84375 H 18.813078 17.984953 V 4.6400703 4.3280892 l 0.820312,-0.00833 0.820313,-0.00833 0.0083,-0.8359375 0.0083,-0.8359375 h 0.280229 0.280229 l 0.0083,0.8359375 0.0083,0.8359375 0.820312,0.00833 0.820313,0.00833 v 0.3119811 0.3119811 h -0.828125 -0.828125 v 0.84375 0.84375 h -0.28125 -0.28125 z"
     style="opacity:0.998;fill:none;fill-rule:evenodd;stroke-width:1.13386;paint-order:stroke fill markers" />
</svg>
