<?xml version="1.0" encoding="UTF-8" standalone="no"?>
<svg
   xmlns:dc="http://purl.org/dc/elements/1.1/"
   xmlns:cc="http://creativecommons.org/ns#"
   xmlns:rdf="http://www.w3.org/1999/02/22-rdf-syntax-ns#"
   xmlns:svg="http://www.w3.org/2000/svg"
   xmlns="http://www.w3.org/2000/svg"
   xmlns:sodipodi="http://sodipodi.sourceforge.net/DTD/sodipodi-0.dtd"
   xmlns:inkscape="http://www.inkscape.org/namespaces/inkscape"
   inkscape:version="1.0 (4035a4fb49, 2020-05-01)"
   sodipodi:docname="newpost.svg"
   id="svg17"
   version="1.1"
   viewBox="0 0 32 32">
  <metadata
     id="metadata21">
    <rdf:RDF>
      <cc:Work
         rdf:about="">
        <dc:format>image/svg+xml</dc:format>
        <dc:type
           rdf:resource="http://purl.org/dc/dcmitype/StillImage" />
        <dc:title></dc:title>
      </cc:Work>
    </rdf:RDF>
  </metadata>
  <sodipodi:namedview
     inkscape:current-layer="svg17"
     inkscape:window-maximized="1"
     inkscape:window-y="-8"
     inkscape:window-x="-8"
     inkscape:cy="15.939805"
     inkscape:cx="10.311495"
     inkscape:zoom="14.097941"
     showgrid="false"
     id="namedview19"
     inkscape:window-height="829"
     inkscape:window-width="1600"
     inkscape:pageshadow="2"
     inkscape:pageopacity="0"
     guidetolerance="10"
     gridtolerance="10"
     objecttolerance="10"
     borderopacity="1"
     bordercolor="#666666"
     pagecolor="#ffffff" />
  <defs
     id="defs4">
    <style
       id="style2">.cls-1{fill:#101820;}</style>
  </defs>
  <g
     style="stroke-width:1.25339"
     transform="matrix(0.71260365,0,0,0.89325754,0.92404322,2.5990072)"
     id="Layer_42"
     data-name="Layer 42">
    <path
       style="stroke-width:1.25339"
       id="path8"
       d="M 2,29 A 1,1 0 0 1 1,27.89 l 0.77,-7 A 1,1 0 0 1 2.06,20.3 L 18.42,3.94 a 3.2,3.2 0 0 1 4.53,0 l 3.11,3.11 a 3.2,3.2 0 0 1 0,4.53 L 9.71,27.93 a 1,1 0 0 1 -0.59,0.29 l -7,0.77 z m 7,-1.78 z m -5.27,-5.77 -0.6,5.42 5.42,-0.6 16.1,-16.1 a 1.2,1.2 0 0 0 0,-1.7 L 21.53,5.35 a 1.2,1.2 0 0 0 -1.7,0 z"
       class="cls-1" />
    <path
       style="stroke-width:1.25339"
       id="path10"
       d="M 23,14.21 A 1,1 0 0 1 22.29,13.92 L 16.08,7.69 A 1.0040916,1.0040916 0 0 1 17.5,6.27 l 6.23,6.23 a 1,1 0 0 1 0,1.42 1,1 0 0 1 -0.73,0.29 z"
       class="cls-1" />
    <rect
       style="stroke-width:1.25339"
       id="rect12"
       y="16.1"
       x="7.3899999"
       width="11.01"
       transform="rotate(-45,12.901419,17.096057)"
       height="2"
       class="cls-1" />
    <path
       style="stroke-width:1.25339"
       id="path14"
       d="M 30,29 H 14 a 1,1 0 0 1 0,-2 h 16 a 1,1 0 0 1 0,2 z"
       class="cls-1" />
    <path
       transform="matrix(1.57244,0,0,1.3649364,-3.1343132,-10.970435)"
       id="path854"
       d="m 4.0336391,27.540114 c 0.016701,-0.07961 0.096654,-0.894846 0.1776743,-1.811646 0.08102,-0.916801 0.1619722,-1.73602 0.1798937,-1.820489 0.029953,-0.141176 8.1252029,-9.537397 8.2581039,-9.585247 0.05433,-0.01956 2.921953,3.248319 2.966833,3.380931 0.01111,0.03281 -1.833103,2.194917 -4.09824,4.804677 l -4.1184307,4.745019 -1.6980998,0.215745 c -1.6804917,0.213508 -1.6977848,0.214244 -1.6677344,0.07101 z m 6.6642299,-6.442905 c 1.348006,-1.552367 2.450919,-2.84118 2.450919,-2.864029 0,-0.06668 -0.882403,-1.078488 -0.928473,-1.064635 -0.05615,0.01688 -4.7934009,5.473895 -4.8997736,5.644225 -0.072679,0.116377 -0.024805,0.20004 0.3662414,0.640037 0.2474169,0.278389 0.4746704,0.497325 0.5050076,0.486524 0.030337,-0.0108 1.1580726,-1.289756 2.5060786,-2.842122 z"
       style="fill:#ffff00;fill-rule:evenodd;stroke-width:0.970072;paint-order:stroke fill markers" />
    <path
       transform="matrix(1.57244,0,0,1.3649364,-3.1343132,-10.970435)"
       id="path856"
       d="m 15.115759,14.866743 -1.473247,-1.704811 0.226072,-0.285441 c 0.12434,-0.156992 0.405118,-0.473597 0.62395,-0.703567 0.338647,-0.355884 0.434552,-0.417776 0.64425,-0.415768 0.135505,0.0013 0.310212,0.05716 0.388238,0.124132 0.147862,0.12692 1.871873,2.097404 2.147373,2.454372 0.177315,0.229749 0.209739,0.687235 0.06675,0.941798 -0.111426,0.19837 -1.05429,1.301769 -1.108654,1.297417 -0.02282,-0.0018 -0.704444,-0.770486 -1.514732,-1.708132 z"
       style="fill:#ff0000;fill-rule:evenodd;stroke-width:0.970072;paint-order:stroke fill markers" />
    <path
       transform="matrix(1.57244,0,0,1.3649364,-3.1343132,-10.970435)"
       id="path858"
       d="m 21.580528,16.965877 c -0.449373,-0.141315 -0.968132,-0.503772 -1.246869,-0.871187 -0.426431,-0.562096 -0.456032,-0.794642 -0.432182,-3.395168 0.02068,-2.255169 0.02644,-2.338988 0.184341,-2.682568 0.205086,-0.4462557 0.654471,-0.9137295 1.113791,-1.1586219 l 0.354662,-0.1890924 h 2.624497 2.624496 l 0.352812,0.1736143 c 0.450001,0.2214401 0.883578,0.6550164 1.105018,1.1050178 l 0.173614,0.3528122 v 2.553564 2.553564 l -0.188715,0.35751 c -0.230003,0.435724 -0.728747,0.908176 -1.178882,1.116734 -0.321107,0.148776 -0.433269,0.155764 -2.746479,0.171103 -1.947702,0.01292 -2.474882,-0.0039 -2.740104,-0.08728 z m 3.0593,-2.728448 v -0.993053 h 0.957586 0.957587 V 12.818782 12.393188 H 25.597414 24.639828 V 11.435601 10.478014 H 24.214234 23.78864 v 0.957587 0.957587 h -0.993053 -0.993053 v 0.425594 0.425594 h 0.993053 0.993053 v 0.993053 0.993052 h 0.425594 0.425594 z"
       style="fill:#3600ff;fill-opacity:1;fill-rule:evenodd;stroke-width:0.970072;paint-order:stroke fill markers" />
  </g>
  <path
     style="fill:#6300ff;fill-opacity:1;stroke-width:1"
     clip-rule="evenodd"
     d="m 23.587133,3.2574005 c -1.462407,0 -2.647922,1.2688329 -2.647922,2.8340199 v 4.7233646 c 0,1.565182 1.185515,2.834019 2.647922,2.834019 h 4.413204 c 1.462403,0 2.647923,-1.268837 2.647923,-2.834019 V 6.0914204 c 0,-1.565187 -1.18552,-2.8340199 -2.647923,-2.8340199 z m 1.765282,4.723366 V 5.6190833 h 0.882641 v 2.3616832 h 2.206601 v 0.944673 H 26.235056 V 11.287121 H 25.352415 V 8.9254395 h -2.206603 v -0.944673 z"
     fill="#000000"
     fill-rule="evenodd"
     id="path2" />
  <path
     id="path860"
     d="M 25.408176,10.093559 25.386056,8.9044113 24.293185,8.8803557 23.200313,8.8562879 V 8.4263108 7.9963337 h 1.112742 1.112742 V 6.8288056 5.6612788 h 0.397408 0.397407 v 1.1675268 1.1675281 h 1.073002 1.073001 v 0.432418 0.4324168 h -1.073001 -1.073002 v 1.2107695 1.21077 h -0.395165 -0.395165 z"
     style="fill:#ff000f;fill-opacity:0;fill-rule:evenodd;stroke-width:1.13386;paint-order:stroke fill markers" />
</svg>
