<?xml version="1.0" encoding="UTF-8" standalone="no"?>
<svg
   xmlns:dc="http://purl.org/dc/elements/1.1/"
   xmlns:cc="http://creativecommons.org/ns#"
   xmlns:rdf="http://www.w3.org/1999/02/22-rdf-syntax-ns#"
   xmlns:svg="http://www.w3.org/2000/svg"
   xmlns="http://www.w3.org/2000/svg"
   xmlns:xlink="http://www.w3.org/1999/xlink"
   xmlns:sodipodi="http://sodipodi.sourceforge.net/DTD/sodipodi-0.dtd"
   xmlns:inkscape="http://www.inkscape.org/namespaces/inkscape"
   height="24"
   viewBox="0 0 24 24"
   width="24"
   version="1.1"
   id="svg4"
   sodipodi:docname="register.svg"
   inkscape:version="1.0 (4035a4fb49, 2020-05-01)">
  <metadata
     id="metadata10">
    <rdf:RDF>
      <cc:Work
         rdf:about="">
        <dc:format>image/svg+xml</dc:format>
        <dc:type
           rdf:resource="http://purl.org/dc/dcmitype/StillImage" />
        <dc:title />
      </cc:Work>
    </rdf:RDF>
  </metadata>
  <defs
     id="defs8">
    <linearGradient
       id="linearGradient863"
       inkscape:collect="always">
      <stop
         id="stop859"
         offset="0"
         style="stop-color:#004cd4;stop-opacity:1" />
      <stop
         id="stop861"
         offset="1"
         style="stop-color:#00f8c4;stop-opacity:1" />
    </linearGradient>
    <linearGradient
       spreadMethod="repeat"
       gradientUnits="userSpaceOnUse"
       y2="-36"
       x2="638.99982"
       y1="-36"
       x1="615"
       id="linearGradient867"
       xlink:href="#linearGradient863"
       inkscape:collect="always" />
  </defs>
  <sodipodi:namedview
     inkscape:document-rotation="0"
     pagecolor="#ffffff"
     bordercolor="#666666"
     borderopacity="1"
     objecttolerance="10"
     gridtolerance="10"
     guidetolerance="10"
     inkscape:pageopacity="0"
     inkscape:pageshadow="2"
     inkscape:window-width="1600"
     inkscape:window-height="829"
     id="namedview6"
     showgrid="false"
     inkscape:zoom="13.291667"
     inkscape:cx="-7.5059896"
     inkscape:cy="12.939725"
     inkscape:window-x="-8"
     inkscape:window-y="-8"
     inkscape:window-maximized="1"
     inkscape:current-layer="svg4" />
  <path
     d="m 632,-30 a 1,1 0 0 0 -1,1 v 3 h -14 v -18 h 3 v 1 a 1,1 0 0 0 1,1 h 6 a 1,1 0 0 0 1,-1 v -1 h 3 a 1,1 0 0 0 1,1 1,1 0 0 0 1,-1 2,2 0 0 0 -2,-2 h -3.184 A 3,3 0 0 0 625,-48 h -2 a 3,3 0 0 0 -2.816,2 H 617 a 2,2 0 0 0 -2,2 v 18 a 2,2 0 0 0 2,2 h 14 a 2,2 0 0 0 2,-2 v -3 a 1,1 0 0 0 -1,-1 z m -10,-15 a 1,1 0 0 1 1,-1 h 2 a 1,1 0 0 1 1,1 v 1 h -4 z m 3,8 h -5 a 1,1 0 0 1 -1,-1 1,1 0 0 1 1,-1 h 5 a 1,1 0 0 1 1,1 1,1 0 0 1 -1,1 z m -2,3 a 1,1 0 0 1 -1,1 h -2 a 1,1 0 0 1 -1,-1 1,1 0 0 1 1,-1 h 2 a 1,1 0 0 1 1,1 z m 0,4 a 1,1 0 0 1 -1,1 h -2 a 1,1 0 0 1 -1,-1 1,1 0 0 1 1,-1 h 2 a 1,1 0 0 1 1,1 z m 15.707,-10.707 -3,-3 a 1,1 0 0 0 -1.414,0 l -10,10 A 1,1 0 0 0 624,-33 v 3 a 1,1 0 0 0 1,1 h 3 a 1,1 0 0 0 0.707,-0.293 l 10,-10 a 1,1 0 0 0 0,-1.414 z M 627.586,-31 H 626 v -1.586 l 9,-9 1.586,1.586 z"
     transform="translate(-615,48)"
     id="path2"
     style="opacity:1;mix-blend-mode:normal;fill:url(#linearGradient867);fill-opacity:1" />
</svg>
