<?xml version="1.0" encoding="UTF-8" standalone="no"?>
<svg
   xmlns:dc="http://purl.org/dc/elements/1.1/"
   xmlns:cc="http://creativecommons.org/ns#"
   xmlns:rdf="http://www.w3.org/1999/02/22-rdf-syntax-ns#"
   xmlns:svg="http://www.w3.org/2000/svg"
   xmlns="http://www.w3.org/2000/svg"
   xmlns:xlink="http://www.w3.org/1999/xlink"
   xmlns:sodipodi="http://sodipodi.sourceforge.net/DTD/sodipodi-0.dtd"
   xmlns:inkscape="http://www.inkscape.org/namespaces/inkscape"
   inkscape:version="1.0 (4035a4fb49, 2020-05-01)"
   sodipodi:docname="search2.svg"
   id="svg4"
   version="1.1"
   height="64px"
   width="64px"
   viewBox="0 0 72 72">
  <metadata
     id="metadata10">
    <rdf:RDF>
      <cc:Work
         rdf:about="">
        <dc:format>image/svg+xml</dc:format>
        <dc:type
           rdf:resource="http://purl.org/dc/dcmitype/StillImage" />
      </cc:Work>
    </rdf:RDF>
  </metadata>
  <defs
     id="defs8">
    <linearGradient
       id="linearGradient839"
       inkscape:collect="always">
      <stop
         id="stop835"
         offset="0"
         style="stop-color:#004cd4;stop-opacity:1" />
      <stop
         id="stop837"
         offset="1"
         style="stop-color:#00f0b7;stop-opacity:1" />
    </linearGradient>
    <linearGradient
       spreadMethod="repeat"
       gradientUnits="userSpaceOnUse"
       y2="36.499977"
       x2="61.999954"
       y1="36.499977"
       x1="11"
       id="linearGradient841"
       xlink:href="#linearGradient839"
       inkscape:collect="always" />
  </defs>
  <sodipodi:namedview
     inkscape:current-layer="svg4"
     inkscape:window-maximized="1"
     inkscape:window-y="-8"
     inkscape:window-x="-8"
     inkscape:cy="32"
     inkscape:cx="32"
     inkscape:zoom="9.96875"
     showgrid="false"
     id="namedview6"
     inkscape:window-height="829"
     inkscape:window-width="1600"
     inkscape:pageshadow="2"
     inkscape:pageopacity="0"
     guidetolerance="10"
     gridtolerance="10"
     objecttolerance="10"
     borderopacity="1"
     bordercolor="#666666"
     pagecolor="#ffffff" />
  <path
     style="fill:url(#linearGradient841)"
     id="path2"
     d="M 31 11 C 19.973 11 11 19.973 11 31 C 11 42.027 19.973 51 31 51 C 34.974166 51 38.672385 49.821569 41.789062 47.814453 L 54.726562 60.751953 C 56.390563 62.415953 59.088953 62.415953 60.751953 60.751953 C 62.415953 59.087953 62.415953 56.390563 60.751953 54.726562 L 47.814453 41.789062 C 49.821569 38.672385 51 34.974166 51 31 C 51 19.973 42.027 11 31 11 z M 31 19 C 37.616 19 43 24.384 43 31 C 43 37.616 37.616 43 31 43 C 24.384 43 19 37.616 19 31 C 19 24.384 24.384 19 31 19 z" />
</svg>
